<svg width="706" height="472" viewBox="0 0 706 472" fill="none" xmlns="http://www.w3.org/2000/svg">
<path d="M9.4605 272.427C9.42 272.616 9.54039 272.802 9.7294 272.842C9.91841 272.883 10.1045 272.763 10.145 272.574L9.4605 272.427ZM290.062 1.06502C290.253 1.03032 290.379 0.84804 290.344 0.65788C290.309 0.46772 290.127 0.341691 289.937 0.376387L290.062 1.06502ZM14.6965 470.766C14.7493 470.952 14.9429 471.06 15.1288 471.007C15.3147 470.954 15.4226 470.76 15.3698 470.574L14.6965 470.766ZM686.872 235.882C686.932 236.065 687.131 236.164 687.314 236.104C687.497 236.043 687.597 235.845 687.536 235.661L686.872 235.882ZM689.015 240.225C688.957 240.041 688.76 239.939 688.576 239.997C688.391 240.056 688.289 240.252 688.348 240.437L689.015 240.225ZM689.761 245.011C689.817 245.196 690.012 245.301 690.197 245.245C690.382 245.189 690.487 244.994 690.431 244.809L689.761 245.011ZM691.784 249.412C691.731 249.226 691.537 249.119 691.351 249.172C691.165 249.225 691.058 249.419 691.111 249.605L691.784 249.412ZM692.398 254.217C692.449 254.403 692.641 254.513 692.827 254.463C693.014 254.412 693.124 254.22 693.073 254.033L692.398 254.217ZM694.299 258.671C694.251 258.484 694.06 258.371 693.873 258.419C693.686 258.467 693.573 258.658 693.621 258.845L694.299 258.671ZM694.781 263.491C694.827 263.679 695.016 263.794 695.204 263.749C695.391 263.703 695.507 263.514 695.461 263.326L694.781 263.491ZM696.559 267.996C696.516 267.808 696.329 267.69 696.14 267.733C695.952 267.776 695.834 267.963 695.877 268.152L696.559 267.996ZM696.909 272.827C696.949 273.016 697.135 273.136 697.324 273.096C697.513 273.056 697.633 272.87 697.593 272.681L696.909 272.827ZM698.563 277.38C698.525 277.19 698.341 277.067 698.151 277.105C697.961 277.143 697.838 277.327 697.876 277.516L698.563 277.38ZM698.779 282.218C698.815 282.408 698.997 282.534 699.187 282.499C699.377 282.464 699.503 282.281 699.468 282.091L698.779 282.218ZM700.308 286.814C700.276 286.623 700.095 286.495 699.904 286.528C699.714 286.561 699.586 286.741 699.618 286.932L700.308 286.814ZM700.392 291.657C700.422 291.848 700.601 291.979 700.792 291.949C700.983 291.919 701.114 291.74 701.084 291.549L700.392 291.657ZM701.795 296.293C701.767 296.102 701.59 295.969 701.399 295.996C701.207 296.024 701.074 296.201 701.102 296.392L701.795 296.293ZM701.747 301.136C701.771 301.328 701.947 301.463 702.138 301.439C702.33 301.414 702.466 301.238 702.441 301.047L701.747 301.136ZM703.022 305.809C703 305.617 702.826 305.48 702.634 305.502C702.442 305.524 702.305 305.697 702.327 305.889L703.022 305.809ZM702.842 310.649C702.862 310.842 703.033 310.982 703.226 310.962C703.418 310.943 703.558 310.771 703.539 310.579L702.842 310.649ZM703.99 315.355C703.973 315.162 703.803 315.02 703.611 315.037C703.418 315.053 703.276 315.223 703.293 315.416L703.99 315.355ZM703.679 320.189C703.693 320.381 703.861 320.526 704.054 320.512C704.247 320.498 704.391 320.33 704.377 320.137L703.679 320.189ZM704.699 324.924C704.687 324.731 704.521 324.584 704.328 324.595C704.135 324.607 703.989 324.773 704 324.966L704.699 324.924ZM704.257 329.747C704.266 329.94 704.43 330.089 704.623 330.08C704.816 330.071 704.965 329.907 704.956 329.714L704.257 329.747ZM705.149 334.508C705.143 334.314 704.981 334.163 704.788 334.169C704.594 334.176 704.443 334.338 704.45 334.531L705.149 334.508ZM704.578 339.318C704.582 339.511 704.741 339.665 704.935 339.661C705.128 339.657 705.281 339.497 705.278 339.304L704.578 339.318ZM705.342 344.1C705.34 343.907 705.183 343.751 704.989 343.752C704.796 343.754 704.64 343.911 704.642 344.105L705.342 344.1ZM482.651 19.8622C482.831 19.9334 483.034 19.8453 483.106 19.6656C483.177 19.4858 483.089 19.2825 482.909 19.2113L482.651 19.8622ZM487.454 21.0471C487.276 20.9734 487.071 21.0586 486.997 21.2374C486.924 21.4161 487.009 21.6207 487.188 21.6943L487.454 21.0471ZM491.699 23.5901C491.876 23.6662 492.082 23.5839 492.158 23.4062C492.234 23.2285 492.152 23.0228 491.974 22.9467L491.699 23.5901ZM496.467 24.9093C496.29 24.8307 496.083 24.9101 496.005 25.0867C495.926 25.2632 496.006 25.4701 496.182 25.5488L496.467 24.9093ZM500.638 27.5699C500.813 27.651 501.021 27.5745 501.102 27.399C501.183 27.2236 501.107 27.0156 500.931 26.9345L500.638 27.5699ZM505.367 29.0223C505.193 28.9387 504.984 29.0123 504.9 29.1867C504.817 29.361 504.89 29.57 505.065 29.6535L505.367 29.0223ZM509.462 31.7988C509.635 31.8848 509.845 31.8141 509.931 31.641C510.017 31.4679 509.947 31.2578 509.773 31.1719L509.462 31.7988ZM514.149 33.3827C513.977 33.2943 513.766 33.362 513.678 33.534C513.589 33.7059 513.657 33.9169 513.829 34.0053L514.149 33.3827ZM518.165 36.2727C518.335 36.3635 518.547 36.2987 518.638 36.1281C518.729 35.9574 518.664 35.7455 518.493 35.6547L518.165 36.2727ZM522.805 37.9871C522.636 37.894 522.423 37.9558 522.33 38.1251C522.237 38.2945 522.299 38.5073 522.468 38.6005L522.805 37.9871ZM526.739 40.988C526.907 41.0835 527.12 41.0247 527.216 40.8566C527.311 40.6885 527.253 40.4749 527.084 40.3794L526.739 40.988ZM531.33 42.8313C531.163 42.7334 530.949 42.7893 530.851 42.956C530.753 43.1227 530.809 43.3371 530.976 43.435L531.33 42.8313ZM535.178 45.9408C535.343 46.0409 535.559 45.9881 535.659 45.8228C535.759 45.6574 535.706 45.4422 535.541 45.3421L535.178 45.9408ZM539.716 47.9112C539.552 47.8088 539.336 47.8586 539.234 48.0225C539.131 48.1864 539.181 48.4024 539.345 48.5048L539.716 47.9112ZM543.476 51.1268C543.638 51.2315 543.855 51.1847 543.96 51.0222C544.064 50.8597 544.018 50.6431 543.855 50.5384L543.476 51.1268ZM547.957 53.2229C547.796 53.1159 547.579 53.1597 547.472 53.3207C547.365 53.4817 547.409 53.6989 547.57 53.8059L547.957 53.2229ZM551.626 56.5417C551.786 56.6509 552.004 56.6101 552.113 56.4506C552.222 56.2911 552.181 56.0732 552.022 55.9641L551.626 56.5417ZM556.048 58.7616C555.89 58.6502 555.671 58.688 555.56 58.8459C555.449 59.0039 555.486 59.2223 555.644 59.3337L556.048 58.7616ZM559.623 62.1812C559.78 62.2948 559.998 62.2601 560.112 62.1037C560.226 61.9473 560.191 61.7284 560.034 61.6148L559.623 62.1812ZM563.981 64.523C563.826 64.4072 563.607 64.4389 563.491 64.5937C563.375 64.7485 563.407 64.9679 563.562 65.0836L563.981 64.523ZM567.46 68.0406C567.613 68.1585 567.833 68.1298 567.951 67.9766C568.069 67.8234 568.04 67.6037 567.887 67.4858L567.46 68.0406ZM571.752 70.5025C571.6 70.3825 571.38 70.4081 571.26 70.5596C571.14 70.7112 571.165 70.9313 571.317 71.0513L571.752 70.5025ZM575.132 74.1151C575.281 74.2372 575.502 74.2147 575.624 74.0648C575.746 73.915 575.724 73.6945 575.574 73.5724L575.132 74.1151ZM579.353 76.6951C579.205 76.571 578.984 76.5904 578.86 76.7386C578.736 76.8868 578.755 77.1075 578.903 77.2317L579.353 76.6951ZM10.6796 270.121C10.7215 269.933 10.6024 269.746 10.4137 269.704C10.225 269.662 10.0381 269.781 9.99623 269.97L10.6796 270.121ZM11.1206 265.068C11.076 265.256 11.1924 265.444 11.3805 265.489C11.5686 265.534 11.7572 265.417 11.8017 265.229L11.1206 265.068ZM12.9941 260.354C13.0414 260.166 12.9277 259.976 12.7403 259.929C12.5529 259.881 12.3626 259.995 12.3153 260.183L12.9941 260.354ZM13.5803 255.315C13.5303 255.502 13.6412 255.694 13.8279 255.744C14.0146 255.794 14.2065 255.683 14.2565 255.496L13.5803 255.315ZM15.5887 250.657C15.6413 250.471 15.5332 250.278 15.3473 250.225C15.1613 250.172 14.9678 250.281 14.9152 250.466L15.5887 250.657ZM16.3198 245.637C16.2645 245.822 16.3698 246.017 16.555 246.073C16.7402 246.128 16.9352 246.023 16.9906 245.838L16.3198 245.637ZM18.4617 241.039C18.5197 240.855 18.4172 240.658 18.2328 240.6C18.0484 240.542 17.8519 240.645 17.7939 240.829L18.4617 241.039ZM19.3371 236.042C19.2764 236.226 19.3761 236.424 19.5596 236.485C19.7432 236.545 19.9411 236.446 20.0017 236.262L19.3371 236.042ZM21.6104 231.508C21.6737 231.325 21.5769 231.126 21.3943 231.063C21.2116 230.999 21.0123 231.096 20.949 231.279L21.6104 231.508ZM22.6295 226.539C22.5636 226.72 22.6575 226.921 22.8392 226.987C23.0209 227.053 23.2216 226.959 23.2875 226.777L22.6295 226.539ZM25.0326 222.071C25.1011 221.89 25.0101 221.688 24.8293 221.62C24.6486 221.551 24.4465 221.642 24.378 221.823L25.0326 222.071ZM26.1942 217.133C26.1231 217.313 26.2112 217.516 26.3909 217.588C26.5707 217.659 26.7741 217.571 26.8452 217.391L26.1942 217.133ZM28.7249 212.737C28.7986 212.558 28.7134 212.354 28.5347 212.28C28.356 212.206 28.1514 212.292 28.0777 212.47L28.7249 212.737ZM30.0281 207.835C29.9519 208.012 30.0341 208.218 30.2117 208.294C30.3893 208.371 30.5951 208.288 30.6714 208.111L30.0281 207.835ZM32.6842 203.513C32.763 203.336 32.6838 203.129 32.5073 203.051C32.3308 202.972 32.1238 203.051 32.045 203.228L32.6842 203.513ZM34.1279 198.65C34.0466 198.825 34.1228 199.033 34.2982 199.115C34.4736 199.196 34.6817 199.12 34.763 198.945L34.1279 198.65ZM36.9071 194.406C36.9909 194.232 36.9177 194.023 36.7435 193.939C36.5693 193.855 36.3602 193.929 36.2763 194.103L36.9071 194.406ZM38.4897 189.587C38.4034 189.76 38.4737 189.97 38.6466 190.057C38.8196 190.143 39.0298 190.073 39.1161 189.9L38.4897 189.587ZM193.981 33.5899C194.153 33.5019 194.221 33.2911 194.134 33.119C194.046 32.9468 193.835 32.8786 193.663 32.9665L193.981 33.5899ZM198.338 30.6219C198.165 30.7072 198.094 30.917 198.179 31.0904C198.264 31.2639 198.474 31.3353 198.648 31.2499L198.338 30.6219ZM203.349 28.9797C203.523 28.897 203.598 28.6883 203.515 28.5136C203.432 28.3389 203.224 28.2644 203.049 28.3471L203.349 28.9797ZM207.793 26.1432C207.617 26.2233 207.539 26.4309 207.619 26.6068C207.699 26.7827 207.907 26.8603 208.083 26.7802L207.793 26.1432ZM212.85 24.6516C213.027 24.5741 213.107 24.3677 213.03 24.1906C212.952 24.0135 212.746 23.9328 212.569 24.0103L212.85 24.6516ZM217.377 21.949C217.198 22.0239 217.115 22.229 217.189 22.4072C217.264 22.5855 217.469 22.6693 217.648 22.5944L217.377 21.949ZM222.476 20.6094C222.655 20.5372 222.742 20.3334 222.67 20.154C222.598 19.9747 222.394 19.8878 222.214 19.96L222.476 20.6094ZM227.082 18.0435C226.901 18.1129 226.811 18.3155 226.881 18.4959C226.95 18.6763 227.153 18.7662 227.333 18.6967L227.082 18.0435ZM232.219 16.8571C232.4 16.7903 232.493 16.5891 232.426 16.4077C232.359 16.2263 232.158 16.1334 231.977 16.2002L232.219 16.8571ZM236.899 14.4303C236.717 14.4944 236.621 14.6941 236.685 14.8765C236.749 15.0589 236.949 15.1548 237.131 15.0908L236.899 14.4303ZM242.07 13.3982C242.253 13.3369 242.352 13.1386 242.29 12.9553C242.229 12.772 242.031 12.673 241.848 12.7343L242.07 13.3982ZM246.82 11.1129C246.636 11.1714 246.534 11.3682 246.593 11.5524C246.651 11.7366 246.848 11.8385 247.032 11.78L246.82 11.1129ZM252.02 10.2361C252.205 10.1804 252.309 9.98511 252.254 9.80003C252.198 9.61496 252.003 9.51014 251.818 9.56592L252.02 10.2361ZM256.837 8.09415C256.651 8.14714 256.543 8.3408 256.596 8.5267C256.649 8.71259 256.843 8.82032 257.029 8.76732L256.837 8.09415ZM262.06 7.37368C262.246 7.32348 262.357 7.13145 262.307 6.94479C262.257 6.75812 262.065 6.6475 261.878 6.69771L262.06 7.37368ZM266.939 5.37687C266.752 5.42428 266.639 5.61462 266.686 5.80202C266.733 5.98942 266.924 6.1029 267.111 6.0555L266.939 5.37687ZM272.181 4.81324C272.369 4.76864 272.486 4.58002 272.441 4.39193C272.396 4.20385 272.208 4.08752 272.02 4.13212L272.181 4.81324ZM277.119 2.96338C276.93 3.00515 276.811 3.19201 276.853 3.38075C276.894 3.56948 277.081 3.68861 277.27 3.64683L277.119 2.96338ZM282.375 2.55685C282.564 2.5179 282.686 2.33284 282.647 2.14351C282.608 1.95417 282.423 1.83226 282.234 1.87121L282.375 2.55685ZM287.365 0.855524C287.175 0.891639 287.051 1.07486 287.087 1.26475C287.123 1.45465 287.306 1.57931 287.496 1.5432L287.365 0.855524ZM1.15663 375.003C1.15766 375.196 1.31519 375.352 1.50849 375.351C1.70178 375.35 1.85765 375.193 1.85662 374.999L1.15663 375.003ZM1.91 379.967C1.90686 379.773 1.74763 379.619 1.55436 379.622C1.36108 379.626 1.20695 379.785 1.2101 379.978L1.91 379.967ZM1.3192 384.949C1.32455 385.143 1.48553 385.295 1.67876 385.289C1.87199 385.284 2.02428 385.123 2.01893 384.93L1.3192 384.949ZM2.18599 389.891C2.17832 389.697 2.01552 389.547 1.82237 389.555C1.62923 389.562 1.47887 389.725 1.48654 389.918L2.18599 389.891ZM1.71563 394.899C1.72573 395.092 1.89041 395.241 2.08345 395.231C2.27648 395.221 2.42477 395.056 2.41467 394.863L1.71563 394.899ZM2.70699 399.825C2.69434 399.632 2.52772 399.486 2.33484 399.499C2.14195 399.512 1.99584 399.678 2.00849 399.871L2.70699 399.825ZM2.36757 404.829C2.38287 405.022 2.55147 405.166 2.74417 405.15C2.93686 405.135 3.08067 404.967 3.06537 404.774L2.36757 404.829ZM3.49416 409.727C3.47609 409.534 3.30543 409.393 3.11298 409.411C2.92052 409.429 2.77915 409.6 2.79722 409.792L3.49416 409.727ZM3.29955 414.747C3.3205 414.939 3.49326 415.078 3.68542 415.057C3.87758 415.036 4.01638 414.863 3.99543 414.671L3.29955 414.747ZM4.57133 419.6C4.5474 419.409 4.37251 419.273 4.18069 419.296C3.98888 419.32 3.85279 419.495 3.87672 419.687L4.57133 419.6ZM4.53325 424.627C4.56027 424.818 4.73733 424.951 4.92874 424.924C5.12014 424.897 5.2534 424.72 5.22638 424.529L4.53325 424.627ZM5.96103 429.44C5.93084 429.249 5.7516 429.119 5.56067 429.149C5.36974 429.179 5.23943 429.359 5.26962 429.55L5.96103 429.44ZM6.08777 434.456C6.12118 434.647 6.3026 434.774 6.493 434.741C6.68339 434.707 6.81065 434.526 6.77724 434.335L6.08777 434.456ZM7.67843 439.226C7.64177 439.036 7.45819 438.912 7.2684 438.948C7.07861 438.985 6.95447 439.169 6.99113 439.358L7.67843 439.226ZM7.97711 444.239C8.017 444.428 8.20265 444.549 8.3918 444.51C8.58094 444.47 8.70193 444.284 8.66205 444.095L7.97711 444.239ZM9.72723 448.946C9.68422 448.757 9.49658 448.639 9.30813 448.682C9.11968 448.725 9.00177 448.913 9.04478 449.102L9.72723 448.946ZM10.191 453.946C10.237 454.134 10.4264 454.249 10.6142 454.203C10.8019 454.157 10.9169 453.967 10.8709 453.78L10.191 453.946ZM12.0872 458.597C12.0386 458.41 11.8475 458.297 11.6604 458.346C11.4733 458.395 11.3611 458.586 11.4097 458.773L12.0872 458.597ZM12.6909 463.582C12.7417 463.769 12.9341 463.879 13.1206 463.828C13.3071 463.777 13.4171 463.585 13.3663 463.398L12.6909 463.582ZM14.6939 468.185C14.6415 467.999 14.4482 467.891 14.2621 467.943C14.0761 467.996 13.9677 468.189 14.0201 468.375L14.6939 468.185ZM686.11 233.612C686.367 234.368 686.62 235.124 686.872 235.882L687.536 235.661C687.284 234.902 687.03 234.144 686.773 233.387L686.11 233.612ZM688.348 240.437C688.829 241.957 689.3 243.482 689.761 245.011L690.431 244.809C689.969 243.277 689.497 241.749 689.015 240.225L688.348 240.437ZM691.111 249.605C691.55 251.138 691.979 252.675 692.398 254.217L693.073 254.033C692.654 252.488 692.224 250.948 691.784 249.412L691.111 249.605ZM693.621 258.845C694.018 260.39 694.405 261.938 694.781 263.491L695.461 263.326C695.084 261.77 694.697 260.219 694.299 258.671L693.621 258.845ZM695.877 268.152C696.231 269.706 696.575 271.265 696.909 272.827L697.593 272.681C697.259 271.115 696.914 269.554 696.559 267.996L695.877 268.152ZM697.876 277.516C698.188 279.08 698.489 280.647 698.779 282.218L699.468 282.091C699.176 280.517 698.875 278.946 698.563 277.38L697.876 277.516ZM699.618 286.932C699.887 288.504 700.145 290.079 700.392 291.657L701.084 291.549C700.836 289.967 700.577 288.389 700.308 286.814L699.618 286.932ZM701.102 296.392C701.327 297.97 701.542 299.552 701.747 301.136L702.441 301.047C702.236 299.459 702.021 297.874 701.795 296.293L701.102 296.392ZM702.327 305.889C702.509 307.473 702.681 309.06 702.842 310.649L703.539 310.579C703.377 308.986 703.205 307.396 703.022 305.809L702.327 305.889ZM703.293 315.416C703.432 317.004 703.561 318.595 703.679 320.189L704.377 320.137C704.259 318.54 704.13 316.946 703.99 315.355L703.293 315.416ZM704 324.966C704.096 326.557 704.182 328.15 704.257 329.747L704.956 329.714C704.881 328.114 704.795 326.518 704.699 324.924L704 324.966ZM704.45 334.531C704.503 336.124 704.546 337.72 704.578 339.318L705.278 339.304C705.245 337.702 705.203 336.104 705.149 334.508L704.45 334.531ZM704.642 344.105C704.647 344.902 704.65 345.701 704.65 346.5H705.35C705.35 345.699 705.347 344.899 705.342 344.1L704.642 344.105ZM480.373 18.9699C481.134 19.2648 481.893 19.5622 482.651 19.8622L482.909 19.2113C482.149 18.9107 481.388 18.6127 480.626 18.3172L480.373 18.9699ZM487.188 21.6943C488.697 22.316 490.2 22.948 491.699 23.5901L491.974 22.9467C490.473 22.3033 488.966 21.6701 487.454 21.0471L487.188 21.6943ZM496.182 25.5488C497.673 26.2124 499.158 26.8862 500.638 27.5699L500.931 26.9345C499.449 26.2494 497.961 25.5743 496.467 24.9093L496.182 25.5488ZM505.065 29.6535C506.536 30.3587 508.002 31.0738 509.462 31.7988L509.773 31.1719C508.31 30.4454 506.842 29.7289 505.367 29.0223L505.065 29.6535ZM513.829 34.0053C515.28 34.7513 516.725 35.5071 518.165 36.2727L518.493 35.6547C517.051 34.8876 515.603 34.1302 514.149 33.3827L513.829 34.0053ZM522.468 38.6005C523.898 39.3867 525.321 40.1825 526.739 40.988L527.084 40.3794C525.664 39.5723 524.238 38.7749 522.805 37.9871L522.468 38.6005ZM530.976 43.435C532.383 44.2608 533.784 45.0961 535.178 45.9408L535.541 45.3421C534.143 44.4957 532.74 43.6587 531.33 42.8313L530.976 43.435ZM539.345 48.5048C540.728 49.3695 542.105 50.2435 543.476 51.1268L543.855 50.5384C542.482 49.6533 541.102 48.7776 539.716 47.9112L539.345 48.5048ZM547.57 53.8059C548.929 54.7086 550.281 55.6206 551.626 56.5417L552.022 55.9641C550.674 55.0412 549.319 54.1274 547.957 53.2229L547.57 53.8059ZM555.644 59.3337C556.977 60.2738 558.304 61.223 559.623 62.1812L560.034 61.6148C558.713 60.6547 557.384 59.7036 556.048 58.7616L555.644 59.3337ZM563.562 65.0836C564.868 66.0604 566.168 67.0461 567.46 68.0406L567.887 67.4858C566.592 66.4894 565.29 65.5017 563.981 64.523L563.562 65.0836ZM571.317 71.0513C572.596 72.0639 573.867 73.0852 575.132 74.1151L575.574 73.5724C574.307 72.5404 573.033 71.5171 571.752 70.5025L571.317 71.0513ZM578.903 77.2317C579.529 77.7554 580.152 78.2814 580.773 78.8094L581.226 78.276C580.604 77.7469 579.979 77.22 579.353 76.6951L578.903 77.2317ZM10.145 272.574C10.3203 271.755 10.4986 270.938 10.6796 270.121L9.99623 269.97C9.8148 270.788 9.63622 271.607 9.4605 272.427L10.145 272.574ZM11.8017 265.229C12.1879 263.6 12.5853 261.974 12.9941 260.354L12.3153 260.183C11.9058 261.806 11.5075 263.435 11.1206 265.068L11.8017 265.229ZM14.2565 255.496C14.6893 253.879 15.1334 252.265 15.5887 250.657L14.9152 250.466C14.459 252.078 14.014 253.694 13.5803 255.315L14.2565 255.496ZM16.9906 245.838C17.4698 244.233 17.9602 242.634 18.4617 241.039L17.7939 240.829C17.2914 242.427 16.8 244.03 16.3198 245.637L16.9906 245.838ZM20.0017 236.262C20.5269 234.672 21.0632 233.088 21.6104 231.508L20.949 231.279C20.4007 232.862 19.8633 234.45 19.3371 236.042L20.0017 236.262ZM23.2875 226.777C23.8583 225.203 24.44 223.635 25.0326 222.071L24.378 221.823C23.7843 223.39 23.2014 224.961 22.6295 226.539L23.2875 226.777ZM26.8452 217.391C27.461 215.834 28.0876 214.283 28.7249 212.737L28.0777 212.47C27.4391 214.019 26.8113 215.573 26.1942 217.133L26.8452 217.391ZM30.6714 208.111C31.3317 206.573 32.0027 205.04 32.6842 203.513L32.045 203.228C31.3621 204.758 30.6898 206.293 30.0281 207.835L30.6714 208.111ZM34.763 198.945C35.4672 197.426 36.1819 195.913 36.9071 194.406L36.2763 194.103C35.5497 195.613 34.8335 197.128 34.1279 198.65L34.763 198.945ZM39.1161 189.9C39.4897 189.151 39.8659 188.404 40.2448 187.658L39.6207 187.341C39.2411 188.088 38.8641 188.837 38.4897 189.587L39.1161 189.9ZM191.661 34.7858C192.433 34.3844 193.206 33.9857 193.981 33.5899L193.663 32.9665C192.886 33.3632 192.111 33.7626 191.338 34.1649L191.661 34.7858ZM198.648 31.2499C200.208 30.4819 201.775 29.7252 203.349 28.9797L203.049 28.3471C201.472 29.094 199.902 29.8523 198.338 30.6219L198.648 31.2499ZM208.083 26.7802C209.665 26.0592 211.254 25.3496 212.85 24.6516L212.569 24.0103C210.971 24.7098 209.378 25.4208 207.793 26.1432L208.083 26.7802ZM217.648 22.5944C219.251 21.9212 220.86 21.2594 222.476 20.6094L222.214 19.96C220.596 20.6114 218.983 21.2744 217.377 21.949L217.648 22.5944ZM227.333 18.6967C228.956 18.0718 230.584 17.4585 232.219 16.8571L231.977 16.2002C230.339 16.8028 228.708 17.4173 227.082 18.0435L227.333 18.6967ZM237.131 15.0908C238.772 14.5147 240.418 13.9505 242.07 13.3982L241.848 12.7343C240.193 13.2877 238.543 13.8531 236.899 14.4303L237.131 15.0908ZM247.032 11.78C248.689 11.2534 250.352 10.7387 252.02 10.2361L251.818 9.56592C250.147 10.0695 248.481 10.5852 246.82 11.1129L247.032 11.78ZM257.029 8.76732C258.701 8.29066 260.378 7.82608 262.06 7.37368L261.878 6.69771C260.193 7.15102 258.512 7.61653 256.837 8.09415L257.029 8.76732ZM267.111 6.0555C268.796 5.62919 270.486 5.21507 272.181 4.81324L272.02 4.13212C270.321 4.53476 268.628 4.94971 266.939 5.37687L267.111 6.0555ZM277.27 3.64683C278.967 3.2712 280.669 2.90784 282.375 2.55685L282.234 1.87121C280.524 2.2229 278.819 2.58699 277.119 2.96338L277.27 3.64683ZM287.496 1.5432C288.35 1.38071 289.206 1.22131 290.062 1.06502L289.937 0.376387C289.079 0.53299 288.221 0.692706 287.365 0.855524L287.496 1.5432ZM1.15 372.5C1.15 373.34 1.15222 374.175 1.15663 375.003L1.85662 374.999C1.85222 374.172 1.85 373.339 1.85 372.5H1.15ZM1.2101 379.978C1.23746 381.661 1.27396 383.318 1.3192 384.949L2.01893 384.93C1.97377 383.301 1.93732 381.647 1.91 379.967L1.2101 379.978ZM1.48654 389.918C1.55361 391.606 1.63013 393.266 1.71563 394.899L2.41467 394.863C2.32933 393.233 2.25294 391.576 2.18599 389.891L1.48654 389.918ZM2.00849 399.871C2.11879 401.553 2.23869 403.206 2.36757 404.829L3.06537 404.774C2.93675 403.154 2.81708 401.504 2.70699 399.825L2.00849 399.871ZM2.79722 409.792C2.95525 411.476 3.12295 413.127 3.29955 414.747L3.99543 414.671C3.81921 413.054 3.65186 411.407 3.49416 409.727L2.79722 409.792ZM3.87672 419.687C4.08643 421.368 4.30559 423.014 4.53325 424.627L5.22638 424.529C4.99924 422.92 4.78057 421.278 4.57133 419.6L3.87672 419.687ZM5.26962 429.55C5.53396 431.222 5.80709 432.857 6.08777 434.456L6.77724 434.335C6.49723 432.74 6.22475 431.108 5.96103 429.44L5.26962 429.55ZM6.99113 439.358C7.31285 441.024 7.64203 442.65 7.97711 444.239L8.66205 444.095C8.32777 442.51 7.99937 440.887 7.67843 439.226L6.99113 439.358ZM9.04478 449.102C9.42248 450.756 9.80524 452.37 10.191 453.946L10.8709 453.78C10.486 452.207 10.1041 450.597 9.72723 448.946L9.04478 449.102ZM11.4097 458.773C11.8367 460.416 12.2647 462.018 12.6909 463.582L13.3663 463.398C12.9406 461.836 12.5134 460.237 12.0872 458.597L11.4097 458.773ZM14.0201 468.375C14.247 469.181 14.4726 469.978 14.6965 470.766L15.3698 470.574C15.1461 469.787 14.9206 468.991 14.6939 468.185L14.0201 468.375ZM9.11827 272.354C9.03727 272.732 9.27805 273.104 9.65607 273.185C10.0341 273.266 10.4062 273.025 10.4872 272.647L9.11827 272.354ZM290.125 1.40933C290.506 1.33994 290.758 0.975378 290.688 0.595057C290.619 0.214737 290.254 -0.0373205 289.874 0.0320718L290.125 1.40933ZM14.3598 470.861C14.4655 471.233 14.8526 471.449 15.2245 471.343C15.5963 471.238 15.8121 470.851 15.7065 470.479L14.3598 470.861ZM686.539 235.992C686.661 236.359 687.057 236.557 687.424 236.436C687.791 236.314 687.99 235.918 687.868 235.551L686.539 235.992ZM689.349 240.12C689.232 239.751 688.839 239.547 688.47 239.664C688.102 239.78 687.897 240.174 688.014 240.542L689.349 240.12ZM689.426 245.112C689.537 245.482 689.928 245.692 690.298 245.58C690.668 245.469 690.878 245.078 690.766 244.708L689.426 245.112ZM692.12 249.315C692.014 248.944 691.626 248.729 691.255 248.835C690.883 248.942 690.668 249.329 690.774 249.701L692.12 249.315ZM692.06 254.308C692.161 254.681 692.546 254.902 692.919 254.8C693.292 254.699 693.513 254.314 693.411 253.941L692.06 254.308ZM694.638 258.584C694.542 258.209 694.16 257.984 693.786 258.08C693.412 258.176 693.186 258.558 693.282 258.932L694.638 258.584ZM694.441 263.573C694.532 263.949 694.91 264.18 695.286 264.089C695.662 263.998 695.893 263.619 695.801 263.243L694.441 263.573ZM696.901 267.918C696.815 267.541 696.44 267.306 696.063 267.391C695.686 267.477 695.45 267.853 695.536 268.229L696.901 267.918ZM696.566 272.9C696.647 273.278 697.019 273.519 697.397 273.438C697.775 273.358 698.016 272.986 697.935 272.608L696.566 272.9ZM698.906 277.311C698.83 276.932 698.462 276.686 698.083 276.762C697.704 276.837 697.457 277.206 697.533 277.585L698.906 277.311ZM698.435 282.282C698.506 282.662 698.871 282.913 699.251 282.843C699.631 282.773 699.882 282.407 699.812 282.027L698.435 282.282ZM700.653 286.755C700.588 286.374 700.226 286.118 699.845 286.183C699.464 286.248 699.208 286.61 699.273 286.991L700.653 286.755ZM700.047 291.712C700.106 292.093 700.465 292.355 700.846 292.295C701.228 292.235 701.49 291.877 701.43 291.495L700.047 291.712ZM702.141 296.244C702.087 295.861 701.732 295.595 701.349 295.65C700.967 295.704 700.701 296.059 700.755 296.442L702.141 296.244ZM701.399 301.181C701.449 301.564 701.8 301.835 702.183 301.786C702.567 301.736 702.837 301.385 702.788 301.002L701.399 301.181ZM703.37 305.769C703.326 305.385 702.978 305.11 702.594 305.154C702.21 305.198 701.935 305.545 701.979 305.929L703.37 305.769ZM702.494 310.685C702.533 311.069 702.876 311.35 703.261 311.311C703.646 311.272 703.926 310.928 703.887 310.544L702.494 310.685ZM704.339 315.324C704.305 314.939 703.965 314.654 703.58 314.688C703.195 314.722 702.91 315.061 702.944 315.446L704.339 315.324ZM703.33 320.215C703.358 320.6 703.694 320.889 704.08 320.861C704.465 320.832 704.755 320.497 704.726 320.111L703.33 320.215ZM705.048 324.903C705.025 324.517 704.693 324.223 704.307 324.246C703.921 324.269 703.628 324.601 703.651 324.987L705.048 324.903ZM703.907 329.763C703.926 330.149 704.253 330.448 704.64 330.429C705.026 330.411 705.324 330.083 705.306 329.697L703.907 329.763ZM705.499 334.496C705.486 334.109 705.162 333.807 704.776 333.82C704.39 333.833 704.087 334.156 704.1 334.543L705.499 334.496ZM704.228 339.325C704.236 339.711 704.555 340.018 704.942 340.011C705.328 340.003 705.635 339.683 705.628 339.297L704.228 339.325ZM705.692 344.098C705.689 343.711 705.374 343.4 704.987 343.402C704.6 343.405 704.289 343.721 704.292 344.107L705.692 344.098ZM482.523 20.1877C482.882 20.3299 483.289 20.1538 483.431 19.7944C483.573 19.4349 483.397 19.0282 483.038 18.8859L482.523 20.1877ZM487.588 20.7235C487.23 20.5762 486.821 20.7466 486.674 21.104C486.527 21.4615 486.697 21.8706 487.054 22.0179L487.588 20.7235ZM491.561 23.9118C491.916 24.064 492.328 23.8994 492.48 23.5441C492.632 23.1887 492.468 22.7772 492.112 22.6249L491.561 23.9118ZM496.609 24.5895C496.256 24.4323 495.842 24.5911 495.685 24.9443C495.528 25.2975 495.687 25.7113 496.04 25.8685L496.609 24.5895ZM500.491 27.8877C500.842 28.0498 501.258 27.8968 501.42 27.5459C501.582 27.1949 501.429 26.779 501.078 26.6168L500.491 27.8877ZM505.518 28.7067C505.17 28.5396 504.752 28.6868 504.585 29.0354C504.418 29.384 504.565 29.8021 504.913 29.9692L505.518 28.7067ZM509.306 32.1123C509.653 32.2842 510.073 32.1429 510.245 31.7966C510.417 31.4504 510.275 31.0303 509.929 30.8584L509.306 32.1123ZM514.309 33.0714C513.965 32.8947 513.543 33.0301 513.366 33.3739C513.189 33.7178 513.325 34.1398 513.669 34.3165L514.309 33.0714ZM518 36.5817C518.341 36.7633 518.765 36.6338 518.947 36.2924C519.128 35.9511 518.999 35.5272 518.658 35.3457L518 36.5817ZM522.974 37.6804C522.635 37.4941 522.21 37.6177 522.023 37.9565C521.837 38.2952 521.961 38.7209 522.299 38.9072L522.974 37.6804ZM526.566 41.2923C526.902 41.4833 527.329 41.3656 527.52 41.0295C527.711 40.6934 527.594 40.2661 527.257 40.0751L526.566 41.2923ZM531.507 42.5294C531.174 42.3337 530.745 42.4454 530.549 42.7788C530.353 43.1122 530.465 43.5412 530.798 43.7368L531.507 42.5294ZM534.997 46.2402C535.327 46.4405 535.758 46.3348 535.958 46.0041C536.158 45.6735 536.053 45.243 535.722 45.0427L534.997 46.2402ZM539.901 47.6144C539.574 47.4095 539.142 47.5092 538.937 47.837C538.732 48.1649 538.832 48.5967 539.159 48.8016L539.901 47.6144ZM543.286 51.421C543.611 51.6304 544.044 51.5367 544.254 51.2118C544.463 50.8868 544.37 50.4536 544.045 50.2442L543.286 51.421ZM548.151 52.9313C547.829 52.7174 547.395 52.805 547.181 53.127C546.967 53.449 547.054 53.8835 547.376 54.0974L548.151 52.9313ZM551.429 56.8305C551.748 57.0489 552.183 56.9673 552.402 56.6483C552.62 56.3293 552.538 55.8936 552.219 55.6752L551.429 56.8305ZM556.25 58.4756C555.934 58.2528 555.497 58.3283 555.274 58.6442C555.051 58.9602 555.127 59.3969 555.443 59.6197L556.25 58.4756ZM559.417 62.4644C559.73 62.6916 560.168 62.6221 560.395 62.3093C560.622 61.9965 560.553 61.5588 560.24 61.3316L559.417 62.4644ZM564.191 64.2427C563.881 64.0112 563.442 64.0745 563.211 64.3842C562.979 64.6938 563.043 65.1324 563.352 65.3639L564.191 64.2427ZM567.247 68.318C567.553 68.5537 567.993 68.4965 568.228 68.1901C568.464 67.8837 568.407 67.4442 568.101 67.2084L567.247 68.318ZM571.969 70.2281C571.666 69.9881 571.225 70.0392 570.985 70.3423C570.745 70.6454 570.797 71.0857 571.1 71.3257L571.969 70.2281ZM574.911 74.3865C575.21 74.6307 575.651 74.5856 575.895 74.2859C576.14 73.9862 576.094 73.5452 575.795 73.3011L574.911 74.3865ZM579.578 76.4269C579.282 76.1786 578.84 76.2175 578.592 76.5138C578.343 76.8101 578.382 77.2516 578.679 77.4999L579.578 76.4269ZM11.0213 270.197C11.105 269.82 10.8669 269.446 10.4895 269.362C10.1121 269.278 9.73825 269.517 9.65453 269.894L11.0213 270.197ZM10.78 264.987C10.6909 265.363 10.9236 265.74 11.2998 265.83C11.676 265.919 12.0532 265.686 12.1423 265.31L10.78 264.987ZM13.3335 260.439C13.428 260.064 13.2008 259.684 12.8259 259.589C12.451 259.495 12.0705 259.722 11.976 260.097L13.3335 260.439ZM13.2421 255.225C13.1422 255.598 13.364 255.982 13.7374 256.082C14.1109 256.182 14.4946 255.96 14.5946 255.587L13.2421 255.225ZM15.9255 250.752C16.0308 250.381 15.8146 249.994 15.4426 249.888C15.0706 249.783 14.6837 249.999 14.5784 250.371L15.9255 250.752ZM15.9845 245.537C15.8738 245.908 16.0844 246.298 16.4549 246.408C16.8253 246.519 17.2153 246.308 17.3259 245.938L15.9845 245.537ZM18.7956 241.144C18.9115 240.775 18.7066 240.382 18.3378 240.266C17.969 240.15 17.576 240.355 17.46 240.724L18.7956 241.144ZM19.0047 235.933C18.8835 236.3 19.0827 236.696 19.4498 236.817C19.8169 236.938 20.2128 236.739 20.3341 236.372L19.0047 235.933ZM21.9411 231.623C22.0677 231.257 21.8741 230.859 21.5088 230.732C21.1435 230.605 20.7448 230.799 20.6183 231.164L21.9411 231.623ZM22.3004 226.419C22.1686 226.783 22.3564 227.184 22.7199 227.316C23.0833 227.448 23.4848 227.26 23.6166 226.897L22.3004 226.419ZM25.3599 222.195C25.4969 221.834 25.3149 221.43 24.9534 221.293C24.5919 221.156 24.1878 221.337 24.0507 221.699L25.3599 222.195ZM25.8688 217.005C25.7266 217.364 25.9027 217.771 26.2622 217.913C26.6217 218.055 27.0284 217.879 27.1706 217.52L25.8688 217.005ZM29.0484 212.871C29.1958 212.513 29.0255 212.104 28.6681 211.957C28.3107 211.809 27.9015 211.979 27.7541 212.337L29.0484 212.871ZM29.7065 207.697C29.554 208.052 29.7184 208.464 30.0736 208.616C30.4289 208.769 30.8405 208.604 30.993 208.249L29.7065 207.697ZM33.0039 203.656C33.1614 203.303 33.003 202.889 32.65 202.731C32.2969 202.573 31.883 202.732 31.7254 203.085L33.0039 203.656ZM33.8104 198.503C33.6478 198.854 33.8002 199.27 34.151 199.432C34.5017 199.595 34.9179 199.442 35.0805 199.092L33.8104 198.503ZM37.2225 194.558C37.3901 194.21 37.2436 193.792 36.8953 193.624C36.5469 193.456 36.1286 193.603 35.9609 193.951L37.2225 194.558ZM38.1766 189.431C38.0039 189.777 38.1444 190.197 38.4903 190.37C38.8362 190.542 39.2566 190.402 39.4292 190.056L38.1766 189.431ZM194.14 33.9016C194.485 33.7257 194.621 33.304 194.445 32.9598C194.269 32.6155 193.848 32.4789 193.503 32.6548L194.14 33.9016ZM198.184 30.3078C197.837 30.4785 197.694 30.8981 197.865 31.245C198.036 31.5918 198.455 31.7347 198.802 31.5639L198.184 30.3078ZM203.499 29.296C203.848 29.1305 203.997 28.7131 203.831 28.3638C203.666 28.0144 203.249 27.8653 202.899 28.0308L203.499 29.296ZM207.648 25.8247C207.296 25.985 207.14 26.4001 207.301 26.7519C207.461 27.1037 207.876 27.259 208.228 27.0987L207.648 25.8247ZM212.99 24.9722C213.344 24.8172 213.505 24.4045 213.351 24.0503C213.196 23.6961 212.783 23.5347 212.429 23.6897L212.99 24.9722ZM217.241 21.6263C216.885 21.776 216.717 22.1863 216.867 22.5427C217.016 22.8992 217.427 23.0668 217.783 22.9171L217.241 21.6263ZM222.606 20.9341C222.965 20.7898 223.139 20.382 222.994 20.0234C222.85 19.6647 222.442 19.491 222.084 19.6353L222.606 20.9341ZM226.956 17.7169C226.595 17.8558 226.415 18.2609 226.554 18.6217C226.693 18.9824 227.098 19.1623 227.459 19.0233L226.956 17.7169ZM232.339 17.1855C232.702 17.052 232.888 16.6497 232.755 16.2868C232.621 15.924 232.219 15.7382 231.856 15.8717L232.339 17.1855ZM236.783 14.1001C236.418 14.2282 236.226 14.6277 236.355 14.9925C236.483 15.3572 236.882 15.5491 237.247 15.421L236.783 14.1001ZM242.181 13.7301C242.547 13.6075 242.745 13.2109 242.622 12.8443C242.5 12.4776 242.103 12.2798 241.737 12.4024L242.181 13.7301ZM246.714 10.7793C246.346 10.8964 246.142 11.29 246.259 11.6584C246.376 12.0269 246.77 12.2306 247.138 12.1135L246.714 10.7793ZM252.121 10.5713C252.491 10.4597 252.7 10.0692 252.589 9.69904C252.477 9.32889 252.087 9.11925 251.717 9.2308L252.121 10.5713ZM256.741 7.75756C256.369 7.86355 256.154 8.25087 256.26 8.62266C256.366 8.99444 256.753 9.20991 257.125 9.10391L256.741 7.75756ZM262.151 7.71167C262.524 7.61126 262.745 7.22721 262.645 6.85388C262.544 6.48055 262.16 6.25931 261.787 6.35972L262.151 7.71167ZM266.854 5.03756C266.479 5.13237 266.252 5.51306 266.347 5.88786C266.441 6.26265 266.822 6.48962 267.197 6.39481L266.854 5.03756ZM272.262 5.15379C272.638 5.0646 272.871 4.68736 272.782 4.31118C272.692 3.93501 272.315 3.70237 271.939 3.79156L272.262 5.15379ZM277.043 2.62165C276.666 2.7052 276.427 3.07892 276.511 3.45639C276.594 3.83385 276.968 4.07211 277.346 3.98856L277.043 2.62165ZM282.445 2.89968C282.824 2.82178 283.068 2.45166 282.99 2.07299C282.912 1.69432 282.542 1.45049 282.163 1.52839L282.445 2.89968ZM287.3 0.511687C286.92 0.583917 286.671 0.950354 286.743 1.33015C286.815 1.70994 287.182 1.95926 287.561 1.88703L287.3 0.511687ZM0.806635 375.005C0.80869 375.392 1.12375 375.703 1.51035 375.701C1.89694 375.699 2.20867 375.384 2.20661 374.998L0.806635 375.005ZM2.25996 379.961C2.25367 379.574 1.93522 379.266 1.54867 379.272C1.16212 379.279 0.853856 379.597 0.860141 379.984L2.25996 379.961ZM0.96933 384.959C0.980043 385.345 1.30201 385.65 1.68846 385.639C2.07491 385.629 2.37951 385.307 2.36879 384.92L0.96933 384.959ZM2.53572 389.877C2.52037 389.49 2.19477 389.19 1.80848 389.205C1.42218 389.22 1.12147 389.546 1.13682 389.932L2.53572 389.877ZM1.3661 394.918C1.38632 395.304 1.71567 395.6 2.10174 395.58C2.48781 395.56 2.7844 395.231 2.76419 394.845L1.3661 394.918ZM3.05624 399.802C3.03094 399.417 2.69771 399.124 2.31194 399.15C1.92617 399.175 1.63394 399.508 1.65924 399.894L3.05624 399.802ZM2.01867 404.857C2.04926 405.242 2.38648 405.53 2.77186 405.499C3.15725 405.469 3.44487 405.132 3.41428 404.746L2.01867 404.857ZM3.84262 409.694C3.80649 409.309 3.46517 409.026 3.08027 409.063C2.69536 409.099 2.41262 409.44 2.44875 409.825L3.84262 409.694ZM2.95161 414.785C2.99351 415.169 3.33902 415.447 3.72335 415.405C4.10767 415.363 4.38526 415.017 4.34337 414.633L2.95161 414.785ZM4.91864 419.557C4.87078 419.174 4.52099 418.901 4.13736 418.949C3.75374 418.997 3.48155 419.347 3.52941 419.73L4.91864 419.557ZM4.18669 424.676C4.24072 425.059 4.59485 425.325 4.97766 425.271C5.36046 425.217 5.62698 424.863 5.57294 424.48L4.18669 424.676ZM6.30673 429.386C6.24637 429.004 5.88787 428.743 5.50601 428.804C5.12416 428.864 4.86354 429.222 4.92391 429.604L6.30673 429.386ZM5.74304 434.517C5.80985 434.898 6.1727 435.152 6.55348 435.085C6.93427 435.019 7.18879 434.656 7.12198 434.275L5.74304 434.517ZM8.02207 439.159C7.94876 438.78 7.58161 438.531 7.20203 438.605C6.82244 438.678 6.57416 439.045 6.64748 439.425L8.02207 439.159ZM7.63464 444.312C7.71441 444.69 8.08572 444.932 8.46401 444.852C8.84229 444.772 9.08429 444.401 9.00452 444.023L7.63464 444.312ZM10.0685 448.868C9.98244 448.491 9.60716 448.255 9.23025 448.341C8.85334 448.427 8.61753 448.802 8.70356 449.179L10.0685 448.868ZM9.85104 454.029C9.94297 454.405 10.3219 454.635 10.6974 454.543C11.0729 454.451 11.3028 454.072 11.2109 453.696L9.85104 454.029ZM12.4259 458.509C12.3287 458.135 11.9466 457.91 11.5724 458.007C11.1982 458.105 10.9737 458.487 11.0709 458.861L12.4259 458.509ZM12.3532 463.674C12.4549 464.047 12.8396 464.267 13.2126 464.166C13.5856 464.064 13.8056 463.679 13.704 463.306L12.3532 463.674ZM15.0308 468.091C14.926 467.718 14.5395 467.502 14.1673 467.606C13.7952 467.711 13.5784 468.098 13.6832 468.47L15.0308 468.091ZM685.779 233.725C686.035 234.479 686.288 235.235 686.539 235.992L687.868 235.551C687.616 234.791 687.362 234.032 687.105 233.275L685.779 233.725ZM688.014 240.542C688.495 242.061 688.965 243.584 689.426 245.112L690.766 244.708C690.304 243.174 689.831 241.645 689.349 240.12L688.014 240.542ZM690.774 249.701C691.213 251.233 691.642 252.768 692.06 254.308L693.411 253.941C692.991 252.395 692.561 250.853 692.12 249.315L690.774 249.701ZM693.282 258.932C693.679 260.475 694.065 262.022 694.441 263.573L695.801 263.243C695.424 261.686 695.036 260.133 694.638 258.584L693.282 258.932ZM695.536 268.229C695.889 269.782 696.233 271.339 696.566 272.9L697.935 272.608C697.601 271.041 697.256 269.478 696.901 267.918L695.536 268.229ZM697.533 277.585C697.844 279.147 698.145 280.712 698.435 282.282L699.812 282.027C699.52 280.452 699.218 278.88 698.906 277.311L697.533 277.585ZM699.273 286.991C699.541 288.561 699.799 290.134 700.047 291.712L701.43 291.495C701.181 289.911 700.922 288.331 700.653 286.755L699.273 286.991ZM700.755 296.442C700.981 298.018 701.195 299.598 701.399 301.181L702.788 301.002C702.583 299.413 702.367 297.826 702.141 296.244L700.755 296.442ZM701.979 305.929C702.161 307.511 702.333 309.097 702.494 310.685L703.887 310.544C703.725 308.949 703.553 307.358 703.37 305.769L701.979 305.929ZM702.944 315.446C703.083 317.033 703.212 318.622 703.33 320.215L704.726 320.111C704.608 318.512 704.478 316.917 704.339 315.324L702.944 315.446ZM703.651 324.987C703.747 326.576 703.833 328.168 703.907 329.763L705.306 329.697C705.231 328.096 705.145 326.498 705.048 324.903L703.651 324.987ZM704.1 334.543C704.153 336.134 704.196 337.728 704.228 339.325L705.628 339.297C705.595 337.694 705.552 336.094 705.499 334.496L704.1 334.543ZM704.292 344.107C704.297 344.904 704.3 345.702 704.3 346.5H705.7C705.7 345.698 705.697 344.898 705.692 344.098L704.292 344.107ZM480.247 19.2962C481.007 19.5908 481.765 19.888 482.523 20.1877L483.038 18.8859C482.277 18.585 481.516 18.2866 480.753 17.9909L480.247 19.2962ZM487.054 22.0179C488.562 22.639 490.064 23.2703 491.561 23.9118L492.112 22.6249C490.609 21.9809 489.101 21.3471 487.588 20.7235L487.054 22.0179ZM496.04 25.8685C497.529 26.5315 499.013 27.2046 500.491 27.8877L501.078 26.6168C499.594 25.931 498.104 25.2552 496.609 24.5895L496.04 25.8685ZM504.913 29.9692C506.383 30.6736 507.848 31.388 509.306 32.1123L509.929 30.8584C508.465 30.1312 506.994 29.4139 505.518 28.7067L504.913 29.9692ZM513.669 34.3165C515.118 35.0618 516.562 35.8169 518 36.5817L518.658 35.3457C517.214 34.5778 515.764 33.8197 514.309 33.0714L513.669 34.3165ZM522.299 38.9072C523.728 39.6926 525.15 40.4876 526.566 41.2923L527.257 40.0751C525.836 39.2672 524.408 38.469 522.974 37.6804L522.299 38.9072ZM530.798 43.7368C532.204 44.5618 533.604 45.3963 534.997 46.2402L535.722 45.0427C534.323 44.1955 532.918 43.3577 531.507 42.5294L530.798 43.7368ZM539.159 48.8016C540.542 49.6654 541.917 50.5385 543.286 51.421L544.045 50.2442C542.67 49.3583 541.289 48.4816 539.901 47.6144L539.159 48.8016ZM547.376 54.0974C548.734 54.9993 550.085 55.9103 551.429 56.8305L552.219 55.6752C550.87 54.7514 549.514 53.8368 548.151 52.9313L547.376 54.0974ZM555.443 59.6197C556.774 60.5589 558.099 61.5072 559.417 62.4644L560.24 61.3316C558.917 60.3706 557.587 59.4185 556.25 58.4756L555.443 59.6197ZM563.352 65.3639C564.658 66.3398 565.956 67.3245 567.247 68.318L568.101 67.2084C566.804 66.211 565.501 65.2224 564.191 64.2427L563.352 65.3639ZM571.1 71.3257C572.377 72.3373 573.648 73.3576 574.911 74.3865L575.795 73.3011C574.527 72.2681 573.251 71.2437 571.969 70.2281L571.1 71.3257ZM578.679 77.4999C579.303 78.0232 579.926 78.5486 580.546 79.0761L581.453 78.0093C580.83 77.4797 580.205 76.9522 579.578 76.4269L578.679 77.4999ZM10.4872 272.647C10.6624 271.829 10.8404 271.013 11.0213 270.197L9.65453 269.894C9.47293 270.713 9.29417 271.533 9.11827 272.354L10.4872 272.647ZM12.1423 265.31C12.528 263.682 12.9251 262.058 13.3335 260.439L11.976 260.097C11.566 261.723 11.1673 263.353 10.78 264.987L12.1423 265.31ZM14.5946 255.587C15.027 253.971 15.4706 252.359 15.9255 250.752L14.5784 250.371C14.1217 251.984 13.6763 253.602 13.2421 255.225L14.5946 255.587ZM17.3259 245.938C17.8047 244.335 18.2946 242.737 18.7956 241.144L17.46 240.724C16.9571 242.323 16.4652 243.928 15.9845 245.537L17.3259 245.938ZM20.3341 236.372C20.8587 234.784 21.3945 233.201 21.9411 231.623L20.6183 231.164C20.0694 232.749 19.5315 234.338 19.0047 235.933L20.3341 236.372ZM23.6166 226.897C24.1868 225.324 24.7679 223.757 25.3599 222.195L24.0507 221.699C23.4564 223.267 22.8729 224.841 22.3004 226.419L23.6166 226.897ZM27.1706 217.52C27.7858 215.964 28.4118 214.415 29.0484 212.871L27.7541 212.337C27.1149 213.887 26.4864 215.443 25.8688 217.005L27.1706 217.52ZM30.993 208.249C31.6526 206.712 32.323 205.181 33.0039 203.656L31.7254 203.085C31.0418 204.616 30.3688 206.154 29.7065 207.697L30.993 208.249ZM35.0805 199.092C35.784 197.575 36.498 196.063 37.2225 194.558L35.9609 193.951C35.2336 195.462 34.5167 196.98 33.8104 198.503L35.0805 199.092ZM39.4292 190.056C39.8025 189.308 40.1784 188.562 40.5568 187.817L39.3087 187.183C38.9287 187.931 38.5513 188.68 38.1766 189.431L39.4292 190.056ZM191.823 35.0963C192.594 34.6953 193.366 34.297 194.14 33.9016L193.503 32.6548C192.726 33.0519 191.951 33.4517 191.177 33.8544L191.823 35.0963ZM198.802 31.5639C200.361 30.7967 201.927 30.0407 203.499 29.296L202.899 28.0308C201.321 28.7785 199.749 29.5375 198.184 30.3078L198.802 31.5639ZM208.228 27.0987C209.809 26.3785 211.396 25.6696 212.99 24.9722L212.429 23.6897C210.829 24.3898 209.235 25.1015 207.648 25.8247L208.228 27.0987ZM217.783 22.9171C219.385 22.2445 220.993 21.5835 222.606 20.9341L222.084 19.6353C220.463 20.2873 218.849 20.951 217.241 21.6263L217.783 22.9171ZM227.459 19.0233C229.08 18.399 230.707 17.7864 232.339 17.1855L231.856 15.8717C230.217 16.4749 228.583 17.09 226.956 17.7169L227.459 19.0233ZM237.247 15.421C238.886 14.8455 240.531 14.2819 242.181 13.7301L241.737 12.4024C240.08 12.9564 238.429 13.5223 236.783 14.1001L237.247 15.421ZM247.138 12.1135C248.794 11.5875 250.455 11.0733 252.121 10.5713L251.717 9.2308C250.044 9.7349 248.376 10.2511 246.714 10.7793L247.138 12.1135ZM257.125 9.10391C258.795 8.62773 260.47 8.16362 262.151 7.71167L261.787 6.35972C260.1 6.81348 258.418 7.27946 256.741 7.75756L257.125 9.10391ZM267.197 6.39481C268.88 5.96893 270.569 5.55523 272.262 5.15379L271.939 3.79156C270.239 4.19461 268.544 4.60998 266.854 5.03756L267.197 6.39481ZM277.346 3.98856C279.041 3.6133 280.741 3.25031 282.445 2.89968L282.163 1.52839C280.452 1.88043 278.745 2.24488 277.043 2.62165L277.346 3.98856ZM287.561 1.88703C288.415 1.7247 289.27 1.56547 290.125 1.40933L289.874 0.0320718C289.015 0.18883 288.157 0.348706 287.3 0.511687L287.561 1.88703ZM0.8 372.5C0.8 373.341 0.802227 374.176 0.806635 375.005L2.20661 374.998C2.20222 374.171 2.2 373.339 2.2 372.5H0.8ZM0.860141 379.984C0.887525 381.668 0.924059 383.326 0.96933 384.959L2.36879 384.92C2.32367 383.293 2.28725 381.64 2.25996 379.961L0.860141 379.984ZM1.13682 389.932C1.20394 391.622 1.28054 393.283 1.3661 394.918L2.76419 394.845C2.67893 393.216 2.6026 391.56 2.53572 389.877L1.13682 389.932ZM1.65924 399.894C1.76964 401.578 1.88966 403.232 2.01867 404.857L3.41428 404.746C3.28578 403.127 3.16623 401.48 3.05624 399.802L1.65924 399.894ZM2.44875 409.825C2.60695 411.51 2.77482 413.163 2.95161 414.785L4.34337 414.633C4.16734 413.018 4.00017 411.372 3.84262 409.694L2.44875 409.825ZM3.52941 419.73C3.73935 421.413 3.95876 423.061 4.18669 424.676L5.57294 424.48C5.34607 422.873 5.12765 421.232 4.91864 419.557L3.52941 419.73ZM4.92391 429.604C5.18857 431.278 5.46202 432.915 5.74304 434.517L7.12198 434.275C6.8423 432.681 6.57015 431.052 6.30673 429.386L4.92391 429.604ZM6.64748 439.425C6.96958 441.092 7.29917 442.72 7.63464 444.312L9.00452 444.023C8.67064 442.439 8.34263 440.819 8.02207 439.159L6.64748 439.425ZM8.70356 449.179C9.08169 450.836 9.46487 452.452 9.85104 454.029L11.2109 453.696C10.8264 452.125 10.4449 450.517 10.0685 448.868L8.70356 449.179ZM11.0709 458.861C11.4983 460.506 11.9267 462.109 12.3532 463.674L13.704 463.306C13.2786 461.745 12.8517 460.147 12.4259 458.509L11.0709 458.861ZM13.6832 468.47C13.9102 469.276 14.1359 470.073 14.3598 470.861L15.7065 470.479C15.4828 469.692 15.2574 468.896 15.0308 468.091L13.6832 468.47Z" fill="#E3E3E3"/>
</svg>
