<svg width="43" height="43" viewBox="0 0 43 43" fill="none" xmlns="http://www.w3.org/2000/svg">
<path d="M42.2574 41.4813H36.7745C38.2724 40.426 39.3223 38.7845 39.6976 36.9112C40.0726 35.0373 39.743 33.0814 38.7797 31.4646C38.7689 31.4412 38.7563 31.4185 38.7427 31.3966L38.684 31.2995C38.127 30.3643 33.3262 21.8348 36.3455 10.465C37.0216 7.91883 37.4613 4.61212 37.6509 0.636762V0.636378C37.6585 0.470851 37.6024 0.308785 37.4951 0.188572C37.3879 0.0683599 37.2393 0 37.0839 0H20.2563C20.1052 0 19.9598 0.0645203 19.8533 0.17935C19.7468 0.29418 19.6874 0.449339 19.6889 0.611022C19.7331 7.3431 20.3481 14.0569 21.5257 20.6707C22.0482 23.4931 21.4138 26.4188 19.7835 28.7093C19.5568 28.6636 19.3269 28.6402 19.0962 28.639C18.9778 28.639 18.8609 28.6463 18.745 28.6578C18.6961 28.6628 18.6486 28.6713 18.6004 28.6778C18.5374 28.687 18.4744 28.6959 18.4125 28.7085C18.3478 28.7212 18.2844 28.737 18.2211 28.7531C18.1823 28.7631 18.1434 28.7734 18.1049 28.785C18.0265 28.808 17.9487 28.8334 17.8724 28.8614C17.8613 28.8656 17.8505 28.8702 17.8393 28.8744L17.839 28.8748C16.663 29.3234 15.7718 30.3649 15.4591 31.6553C15.326 31.6346 15.1918 31.6242 15.0572 31.6238C14.4581 31.625 13.8733 31.8193 13.3797 32.1811C12.886 32.5433 12.5064 33.056 12.2905 33.6524C9.71415 34.5999 7.03425 35.1894 4.31686 35.406C3.4353 35.4855 2.61707 35.9276 2.03518 36.6388C1.45298 37.3501 1.15289 38.2753 1.19787 39.2181C1.24177 40.0672 1.57065 40.871 2.12473 41.4816H0.567805C0.254043 41.4816 0 41.7532 0 42.0877C0 42.4222 0.254034 42.6933 0.567805 42.6933H42.2572C42.5709 42.6933 42.825 42.4222 42.825 42.0877C42.825 41.7532 42.5709 41.4816 42.2572 41.4816L42.2574 41.4813ZM15.0577 32.8352C15.1556 32.8364 15.2535 32.8468 15.3495 32.866C15.36 33.1214 15.3931 33.3752 15.4485 33.6237C15.4845 33.78 15.5773 33.914 15.7065 33.997C15.8357 34.0799 15.99 34.1049 16.1361 34.0661C16.2826 34.0273 16.4081 33.9283 16.4859 33.7904C16.5636 33.6525 16.5866 33.4877 16.5503 33.3314C16.4985 33.1091 16.4726 32.8806 16.4726 32.6513C16.4726 32.614 16.4765 32.5779 16.478 32.541C16.4851 32.5119 16.4905 32.4823 16.4938 32.4523C16.5355 31.8409 16.7637 31.261 17.1429 30.8005C17.5225 30.3404 18.0324 30.0251 18.5956 29.903C18.6107 29.8999 18.6265 29.8984 18.6416 29.8953C18.7071 29.8826 18.773 29.8711 18.8399 29.8642C18.9244 29.8553 19.0101 29.8504 19.0968 29.8504C19.3202 29.8515 19.5426 29.883 19.7585 29.9441C19.7826 29.9579 19.8078 29.9694 19.8334 29.979C20.3735 30.1468 20.8495 30.494 21.1913 30.971L21.2089 30.9964V30.996C21.2856 31.1062 21.3547 31.2218 21.4151 31.3428C21.4216 31.3559 21.427 31.3701 21.4335 31.3835V31.3831C21.4846 31.4903 21.5288 31.6005 21.5663 31.7138C21.5742 31.7372 21.5828 31.7599 21.5904 31.7837V31.7833C21.6274 31.9054 21.6566 32.0302 21.6774 32.1566C21.6821 32.1854 21.6861 32.2146 21.69 32.2438C21.73 32.5042 21.7311 32.7699 21.694 33.0307C21.6897 33.0641 21.685 33.0971 21.6796 33.1302V33.1306C21.6616 33.2469 21.6364 33.3618 21.6048 33.4747C21.5986 33.4962 21.5907 33.5165 21.5839 33.5376C21.5537 33.6337 21.5188 33.7274 21.4788 33.8192C21.463 33.8556 21.4472 33.8917 21.4299 33.9275C21.3813 34.0296 21.327 34.1283 21.2672 34.2232C21.2564 34.2401 21.2439 34.2558 21.2327 34.2727V34.2723C21.1715 34.3634 21.1057 34.4502 21.0352 34.5327C21.0236 34.5462 21.0125 34.56 21.0006 34.5731C20.7279 34.8768 20.395 35.1119 20.0262 35.2609C20.0176 35.2644 20.0118 35.272 20.0036 35.2759C19.7135 35.3918 19.4066 35.4514 19.0968 35.4518C18.7834 35.4518 18.5293 35.7233 18.5293 36.0578C18.5293 36.3923 18.7834 36.6635 19.0968 36.6635C19.3206 36.6623 19.5437 36.64 19.7635 36.5966C19.7614 36.6696 19.7546 36.7422 19.7427 36.814C19.7081 37.0033 19.7596 37.1984 19.8816 37.3405C20.0039 37.4823 20.1817 37.5537 20.3612 37.5326L20.4555 37.5199C20.4918 37.5134 20.5285 37.5091 20.5652 37.508C21.0586 37.5084 21.5321 37.7177 21.8811 38.0902C22.2301 38.4627 22.4266 38.9678 22.4269 39.4947C22.4259 39.5204 22.4233 39.5461 22.4187 39.5715L22.4061 39.6836C22.405 39.694 22.4068 39.704 22.4064 39.714C22.3557 40.2259 22.1197 40.6968 21.7483 41.0255C21.3773 41.3547 20.9006 41.5159 20.4198 41.4752C19.9388 41.4345 19.4919 41.1953 19.1742 40.8081L19.1731 40.8062C19.1357 40.7605 19.1029 40.7114 19.0687 40.663L19.0684 40.6626C18.8338 40.3246 18.706 39.9152 18.7039 39.4947C18.7039 39.1598 18.4499 38.8886 18.1361 38.8886C17.8227 38.8886 17.5686 39.1598 17.5686 39.4947C17.5694 39.9502 17.6611 40.4003 17.8378 40.8147C17.818 40.8331 17.7982 40.8515 17.7781 40.8692L17.7784 40.8696C17.7072 40.9326 17.6327 40.9917 17.5553 41.0459C17.5341 41.0609 17.5139 41.0781 17.4923 41.0924C17.3981 41.1534 17.3002 41.2076 17.1995 41.2548C17.1685 41.2694 17.1368 41.2825 17.1052 41.2959V41.2955C17.0138 41.3343 16.9202 41.3673 16.8252 41.3938C16.6262 41.4507 16.4215 41.4802 16.2157 41.481H16.2135C16.1955 41.4787 16.1783 41.4745 16.1596 41.4741C15.8339 41.4668 15.5126 41.3919 15.2139 41.254C15.193 41.244 15.1729 41.2329 15.152 41.2222C15.1067 41.1995 15.0617 41.1765 15.0182 41.1511C14.6292 40.9226 14.3046 40.5865 14.0787 40.1787C13.8527 39.7704 13.7333 39.3054 13.7329 38.8314C13.7347 38.4532 13.8142 38.0799 13.9653 37.7377C14.3133 37.8848 14.6836 37.96 15.0577 37.96C15.3711 37.96 15.6252 37.6889 15.6252 37.3544C15.6252 37.0199 15.3711 36.7483 15.0577 36.7483C14.5212 36.7637 14.0071 36.5206 13.6569 36.087C13.3068 35.653 13.1579 35.0742 13.2511 34.5105C13.2629 34.4383 13.2766 34.3645 13.2975 34.2816C13.2986 34.2778 13.2978 34.2739 13.2989 34.2701V34.2705C13.4051 33.8591 13.6346 33.4962 13.952 33.2369C14.2697 32.9777 14.658 32.8368 15.0577 32.8352L15.0577 32.8352ZM2.33297 39.1614C2.30238 38.5311 2.50281 37.9128 2.89142 37.4374C3.28003 36.9619 3.8262 36.6662 4.41564 36.6128C7.02581 36.4004 9.60355 35.862 12.0965 35.0083C12.0979 35.0286 12.1015 35.0486 12.1029 35.0693C12.1062 35.1108 12.1112 35.1515 12.1162 35.1922C12.1234 35.2537 12.1321 35.3147 12.1425 35.3754C12.1497 35.4169 12.158 35.4576 12.167 35.4987C12.1796 35.5575 12.194 35.6158 12.2094 35.6738C12.2206 35.7145 12.2321 35.7549 12.2447 35.7952C12.2627 35.852 12.2825 35.9081 12.303 35.9638C12.3174 36.0026 12.3321 36.0417 12.348 36.0798C12.371 36.1351 12.3965 36.1892 12.4228 36.243C12.4404 36.2795 12.4574 36.316 12.4764 36.3517C12.5052 36.4062 12.5372 36.4585 12.5689 36.5111C12.5887 36.5437 12.6074 36.5771 12.6286 36.6094C12.6657 36.6655 12.706 36.7192 12.7467 36.773C12.7661 36.7987 12.7837 36.8252 12.8039 36.8502C12.8661 36.9274 12.9316 37.0023 13.001 37.0733V37.0726C12.7362 37.6156 12.598 38.2189 12.598 38.8315C12.598 38.9644 12.6045 39.0958 12.6168 39.2248L12.6182 39.2352C12.6966 40.0763 13.0334 40.8659 13.5764 41.4815L4.75849 41.4819V41.4815C4.15399 41.4946 3.56744 41.2622 3.11737 40.8317C2.66723 40.4008 2.38693 39.804 2.33296 39.1615L2.33297 39.1614ZM22.9096 41.4818V41.4815C23.16 41.1458 23.3443 40.7591 23.4515 40.3454L24.0009 40.3446C24.4068 40.3446 24.7742 40.335 25.1117 40.3262C26.5442 40.2882 27.2591 40.2697 28.1188 40.9964V40.9968C28.3297 41.1723 28.5499 41.334 28.7788 41.4814L22.9096 41.4818ZM32.9483 41.4818V41.4815C31.4618 41.5095 30.0096 41.0045 28.824 40.047C27.8611 39.2328 26.9709 39.1007 25.8713 39.1007C25.6208 39.1007 25.3596 39.1076 25.084 39.1149C24.7547 39.1234 24.3967 39.133 24.0009 39.133L23.5436 39.1334C23.5421 39.1195 23.5378 39.1069 23.536 39.0934C23.5173 38.9267 23.486 38.7616 23.4428 38.5999C23.441 38.5934 23.4385 38.5872 23.4367 38.5807V38.5811C23.3921 38.4229 23.3359 38.2688 23.269 38.1198C23.2636 38.1079 23.2593 38.0953 23.2535 38.0834C23.1866 37.9405 23.1096 37.803 23.0233 37.672C23.0114 37.654 23.0006 37.6356 22.9887 37.6179C22.9031 37.4931 22.8092 37.3752 22.708 37.2649C22.6915 37.2465 22.6749 37.2285 22.658 37.2108H22.6577C22.5551 37.1036 22.4457 37.0046 22.3299 36.9143C22.3104 36.8993 22.291 36.8847 22.2712 36.8701V36.8698C22.1518 36.781 22.0269 36.7015 21.8966 36.632C21.8776 36.622 21.8585 36.6132 21.8394 36.6036C21.7031 36.5341 21.562 36.4757 21.4174 36.4293C21.4037 36.425 21.3897 36.422 21.376 36.4181V36.4177C21.2202 36.3701 21.0611 36.3359 20.8999 36.316C20.8963 36.2706 20.892 36.2253 20.8859 36.1792C21.7801 35.6596 22.4392 34.7766 22.7142 33.7305C22.716 33.7232 22.7174 33.716 22.7196 33.709H22.7192C22.7574 33.5596 22.7876 33.4079 22.8092 33.2547C22.8139 33.2217 22.8193 33.189 22.8236 33.1556H22.8232C22.8668 32.825 22.8671 32.4901 22.825 32.1594C22.8193 32.1075 22.8106 32.0568 22.8031 32.0054C22.7862 31.8936 22.7646 31.7838 22.739 31.6751C22.7264 31.6209 22.7146 31.5668 22.6998 31.5134H22.7002C22.6613 31.3717 22.6152 31.2323 22.562 31.0963C22.544 31.0502 22.5213 31.0068 22.5019 30.9619C22.4587 30.8628 22.4127 30.7656 22.3623 30.6712C22.3339 30.6182 22.304 30.5667 22.2734 30.5153C22.2169 30.4196 22.1561 30.3274 22.0924 30.2376C22.0694 30.2053 22.0485 30.1719 22.0244 30.1404V30.14C21.7164 29.731 21.3364 29.39 20.9061 29.1361C22.5702 26.6113 23.197 23.471 22.6415 20.4415C21.5112 14.1005 20.9053 7.66521 20.8313 1.21166H36.4843C36.3685 4.22381 35.9558 7.21442 35.2538 10.1343C32.0992 22.013 37.141 30.9678 37.7344 31.9627L37.7632 32.01C37.7722 32.0299 37.7826 32.0492 37.7942 32.0676C38.847 33.8012 39.0064 35.9857 38.2169 37.8721C37.4279 39.7583 35.7975 41.0901 33.8851 41.41C33.6501 41.4461 33.4133 41.4668 33.1758 41.4726C33.1489 41.4734 33.1222 41.4764 33.096 41.4814L32.9483 41.4818ZM9.29317 31.3552C9.29317 31.8114 9.46301 32.2492 9.76526 32.5722C10.0679 32.8948 10.4781 33.0765 10.9056 33.0765C11.3334 33.0765 11.7436 32.8952 12.0462 32.5722C12.3485 32.2496 12.5187 31.8118 12.5187 31.3552C12.5187 30.8989 12.3488 30.4607 12.0462 30.1381C11.744 29.8151 11.3338 29.6338 10.9059 29.6338C10.4784 29.6342 10.0682 29.8155 9.766 30.1385C9.46375 30.4611 9.29355 30.8985 9.29319 31.3552L9.29317 31.3552ZM11.3833 31.3552C11.3833 31.561 11.2671 31.7469 11.0887 31.826C10.9102 31.9047 10.7047 31.8614 10.568 31.7154C10.4316 31.5695 10.3906 31.3502 10.4647 31.1597C10.5385 30.9696 10.713 30.8452 10.9059 30.8455C11.1696 30.8459 11.383 31.0737 11.3834 31.3552L11.3833 31.3552ZM14.3235 29.8808H14.3231C14.8485 29.8808 15.3519 29.6581 15.7232 29.2617C16.0945 28.8654 16.3032 28.3281 16.3028 27.7674C16.3028 27.2071 16.0945 26.6698 15.7232 26.2735C15.3518 25.8771 14.8481 25.6544 14.3231 25.6544C13.7981 25.6544 13.2944 25.8771 12.9231 26.2735C12.5517 26.6698 12.3434 27.2075 12.3434 27.7678C12.3441 28.3281 12.5528 28.865 12.9238 29.2613C13.2951 29.6573 13.7985 29.88 14.3231 29.8808L14.3235 29.8808ZM14.3235 26.8664L14.3231 26.866C14.6649 26.866 14.973 27.0857 15.1036 27.4225C15.2342 27.7597 15.1619 28.1472 14.9204 28.4049C14.679 28.663 14.3156 28.7398 14 28.6004C13.6844 28.461 13.4786 28.1322 13.4786 27.7678C13.479 27.27 13.8571 26.8668 14.3231 26.866L14.3235 26.8664ZM9.86097 26.535L9.86061 26.5346C10.4381 26.5346 10.9922 26.2899 11.4007 25.854C11.8091 25.4181 12.0386 24.8271 12.0386 24.2107C12.0386 23.5943 11.8091 23.0028 11.4007 22.5669C10.9926 22.131 10.4385 21.886 9.86098 21.886C9.28346 21.886 8.72971 22.131 8.32127 22.5669C7.91287 23.0028 7.68331 23.5938 7.68331 24.2103C7.68402 24.8263 7.91359 25.4169 8.32199 25.8528C8.73003 26.2884 9.28349 26.5338 9.86059 26.5345L9.86097 26.535ZM9.86097 23.0981L9.86061 23.0977C10.2823 23.0977 10.6623 23.3685 10.8239 23.7844C10.9854 24.1999 10.8962 24.6788 10.5982 24.9968C10.2999 25.3152 9.85161 25.4105 9.46191 25.2384C9.07258 25.066 8.81855 24.6604 8.81855 24.2103C8.81927 23.5962 9.28524 23.0988 9.86055 23.0977L9.86097 23.0981ZM27.2311 30.7495L27.2307 30.7491C26.5262 30.7491 25.8501 31.0483 25.3517 31.5802C24.8534 32.1121 24.5735 32.8338 24.5735 33.5861C24.5735 34.3384 24.8534 35.0597 25.3517 35.5916C25.8501 36.1235 26.5262 36.4227 27.2311 36.4227C27.936 36.4227 28.6117 36.1239 29.1104 35.5916C29.6088 35.0597 29.8887 34.3384 29.8887 33.5861C29.888 32.8337 29.6077 32.1129 29.1093 31.5809C28.611 31.049 27.9356 30.7498 27.231 30.7491L27.2311 30.7495ZM27.2311 35.2111H27.2307C26.827 35.2111 26.4398 35.0398 26.1544 34.7348C25.8687 34.4303 25.7083 34.0167 25.7086 33.5857C25.7086 33.1548 25.8691 32.7416 26.1544 32.4366C26.4401 32.132 26.8273 31.9607 27.2311 31.9607C27.6352 31.9607 28.0223 32.132 28.3077 32.437C28.5934 32.7415 28.7535 33.1551 28.7535 33.5861C28.7532 34.017 28.5927 34.4299 28.307 34.7344C28.0216 35.0394 27.6345 35.2107 27.2311 35.2111L27.2311 35.2111ZM29.6372 18.6308C28.6779 18.632 27.7582 19.0391 27.0799 19.7631C26.4016 20.487 26.0202 21.4687 26.0191 22.4925C26.0191 22.6032 26.0242 22.7141 26.0335 22.8263C25.6424 23.0525 25.316 23.3874 25.0886 23.7956C24.8612 24.2043 24.7417 24.6705 24.7424 25.1452C24.741 25.9464 25.0789 26.7052 25.6618 27.2099C26.2447 27.7142 27.0104 27.91 27.7444 27.7426C28.4781 27.5751 29.102 27.0624 29.4406 26.3477C29.5072 26.3523 29.5727 26.3542 29.6367 26.3542H29.6371C30.5971 26.3553 31.5186 25.949 32.198 25.2247C32.8773 24.5004 33.2588 23.5176 33.2588 22.4926C33.2588 21.4679 32.8774 20.4847 32.198 19.7604C31.5186 19.0361 30.5971 18.6298 29.6371 18.631L29.6372 18.6308ZM29.6372 25.1424C29.5537 25.1412 29.4706 25.1351 29.3878 25.1251C29.3249 25.1174 29.2601 25.1078 29.191 25.0944V25.094C28.9096 25.0414 28.6391 24.9365 28.3911 24.7848C28.1198 24.6166 27.7722 24.7146 27.6146 25.0041C27.457 25.2933 27.5491 25.6643 27.8201 25.8325C27.9622 25.9201 28.1094 25.9973 28.2612 26.0634C28.0086 26.394 27.6308 26.5868 27.231 26.5895C26.796 26.5911 26.3872 26.3691 26.1328 25.9927C25.8784 25.6163 25.8097 25.1324 25.9482 24.6923C26.0868 24.2525 26.4157 23.9111 26.8313 23.7751C26.8431 23.7713 26.8514 23.7617 26.8626 23.7571V23.7575C27.1047 23.6845 27.3609 23.6841 27.6034 23.7563C27.9046 23.8473 28.218 23.6603 28.3037 23.3389C28.3893 23.0174 28.2148 22.6825 27.914 22.5907C27.6668 22.517 27.4109 22.4843 27.1544 22.4939V22.4924C27.1544 21.7896 27.416 21.1152 27.8816 20.6183C28.3472 20.1213 28.979 19.8421 29.6375 19.8421C30.2959 19.8421 30.9275 20.1213 31.3931 20.6187C31.8587 21.1156 32.1203 21.7896 32.1203 22.4925C32.1203 23.1953 31.8587 23.8697 31.3931 24.3666C30.9271 24.8636 30.2956 25.1428 29.6372 25.1424L29.6372 25.1424Z" fill="url(#paint0_linear_47_212)"/>
<defs>
<linearGradient id="paint0_linear_47_212" x1="8.27292" y1="-28.4622" x2="39.5516" y2="51.0049" gradientUnits="userSpaceOnUse">
<stop stop-color="#A2FFF0" stop-opacity="0.85"/>
<stop offset="0.473958" stop-color="#0AC6A7" stop-opacity="0.65"/>
<stop offset="1" stop-color="#1C91E7" stop-opacity="0.85"/>
</linearGradient>
</defs>
</svg>
