<svg width="22" height="22" viewBox="0 0 22 22" fill="none" xmlns="http://www.w3.org/2000/svg">
<path d="M17.4775 2.17342L17.3924 2.25874L8.11906 11.5526L17.4775 2.17342ZM17.4775 2.17342H17.357M17.4775 2.17342H17.357M17.357 2.17342H14.3322C13.7419 2.17342 13.2782 1.70699 13.2782 1.11171C13.2782 0.517087 13.7633 0.05 14.3322 0.05H19.9845C20.5748 0.05 21.0385 0.516361 21.0385 1.11163L21.0386 6.8036C21.0386 7.39887 20.5749 7.86531 19.9846 7.86531C19.395 7.86531 18.9307 7.37733 18.9307 6.8036V3.75755V3.63624L18.8452 3.72231L9.59385 13.0384C9.59385 13.0385 9.59384 13.0385 9.59384 13.0385C9.3818 13.2518 9.12949 13.3571 8.85645 13.3571C8.58339 13.3571 8.33106 13.2519 8.11906 13.0385L8.08358 13.0737M17.357 2.17342L8.08358 13.0737M8.08358 13.0737L8.11906 13.0385M8.08358 13.0737L8.11906 13.0385M8.11906 13.0385C7.7189 12.6355 7.71887 11.9557 8.11898 11.5527L8.11906 13.0385ZM15.3732 12.3421C15.3732 11.748 15.3088 11.1962 15.1583 10.6447L16.8291 8.96245C17.2501 10.0044 17.4812 11.1304 17.4812 12.32C17.4812 17.162 13.5731 21.097 8.7656 21.097C3.95819 21.097 0.05 17.1399 0.05 12.32C0.05 7.50023 3.95811 3.56526 8.74352 3.56526C9.92493 3.56526 11.0432 3.79801 12.0779 4.22212L10.428 5.88355C9.88258 5.75307 9.33492 5.66634 8.74352 5.66634C5.09452 5.66634 2.13588 8.64621 2.13588 12.3199C2.13588 15.9935 5.1166 18.9956 8.7656 18.9957C12.4146 18.9957 15.3732 16.0158 15.3732 12.3421Z" fill="#D9D9D9" stroke="white" stroke-width="0.1"/>
</svg>
