<svg width="56" height="36" viewBox="0 0 56 36" fill="none" xmlns="http://www.w3.org/2000/svg">
<path d="M29.5045 9.94078C29.7495 9.94078 29.9919 9.95269 30.2307 9.97651L30.2298 4.7765C30.2298 3.59406 30.6842 2.5178 31.4139 1.73799C32.1442 0.955727 33.1539 0.470703 34.2635 0.470703H51.32C52.4297 0.470703 53.4393 0.95569 54.1696 1.73458L54.2129 1.7846C54.9172 2.56067 55.3542 3.61729 55.3542 4.7764V14.6785C55.3542 15.8604 54.8998 16.9362 54.1701 17.7165C53.4399 18.4987 52.4302 18.9838 51.3205 18.9838H50.4559C50.1082 19.6679 49.6887 20.3186 49.2021 20.9213C48.6276 21.6312 47.9572 22.2749 47.1993 22.8265C46.3031 23.4801 45.3425 23.9622 44.3551 24.2785C43.3401 24.6035 42.2872 24.7554 41.2405 24.7383C40.8254 24.7316 40.4946 24.3657 40.5004 23.9227C40.504 23.6216 40.6642 23.3619 40.8963 23.229L41.2954 22.9822L41.6815 22.7169C42.4947 22.1247 43.187 21.4111 43.7495 20.6164C44.1146 20.1018 44.4252 19.554 44.6792 18.9837H37.3376C37.1885 21.0337 36.3458 22.8784 35.0598 24.2522C34.3662 24.9921 33.5498 25.5914 32.6459 26.0131C33.3664 26.1536 34.0707 26.3432 34.7465 26.5819C36.6109 27.2379 38.2633 28.2751 39.4564 29.6924C40.6157 31.0677 41.3405 32.7899 41.4102 34.8585C41.4244 35.3016 41.0995 35.6741 40.6844 35.6894L23.06 35.6927L22.9926 35.6894L0.755232 35.6927C0.338788 35.6927 0 35.3311 0 34.8866L0.0062498 34.7818C0.182563 30.5637 3.0655 27.8176 6.78052 26.541C7.4197 26.3209 8.08338 26.1451 8.76052 26.0117C7.85576 25.5891 7.04025 24.9903 6.35202 24.2557C4.93124 22.7392 4.05059 20.6417 4.05059 18.3269C4.05059 16.0158 4.93124 13.9182 6.35202 12.4008C7.77681 10.8811 9.74161 9.94112 11.9068 9.94112C14.0761 9.94112 16.041 10.8811 17.4617 12.3975C18.8825 13.914 19.7631 16.0116 19.7631 18.3264C19.7631 20.6374 18.8842 22.7331 17.4617 24.2524C16.7685 24.9913 15.9539 25.5892 15.0513 26.0118C15.7302 26.1442 16.3953 26.321 17.0353 26.5411C18.4056 27.0122 19.6616 27.6835 20.7115 28.5539C22.2497 27.2776 24.2364 26.4306 26.3641 26.0147C25.4563 25.5921 24.6385 24.9919 23.9494 24.2563C22.5286 22.7398 21.6479 20.6422 21.6479 18.3274C21.6479 16.0164 22.5286 13.9188 23.9494 12.4014C25.3741 10.8817 27.3393 9.94078 29.5045 9.94078ZM21.837 29.6593C22.8596 30.8589 23.5487 32.3324 23.7536 34.0798H39.8308C39.6389 32.7868 39.1059 31.6816 38.336 30.7679C37.3272 29.5702 35.9003 28.6818 34.2751 28.1077C32.6182 27.5189 30.757 27.2607 28.9166 27.3307C26.2768 27.4322 23.6947 28.21 21.837 29.6593ZM16.3946 13.5349C15.2475 12.3106 13.6593 11.5511 11.907 11.5511C10.1537 11.5511 8.56566 12.3096 7.41763 13.533C6.27097 14.7583 5.5608 16.4533 5.5608 18.3247C5.5608 20.1955 6.27185 21.8901 7.41946 23.1144C8.56658 24.3388 10.1548 25.0982 11.907 25.0982C13.662 25.0982 15.2493 24.3417 16.3946 23.1178C17.544 21.8915 18.2533 20.1975 18.2533 18.3247C18.2533 16.4538 17.5422 14.7593 16.3946 13.5349ZM7.23994 28.0689C4.33553 29.0675 2.03409 31.0755 1.58377 34.0792H22.2317C21.7822 31.075 19.4808 29.0674 16.5759 28.0689C15.1261 27.5706 13.5198 27.3205 11.9076 27.3205C10.2962 27.3205 8.6893 27.5706 7.23994 28.0689ZM31.7398 10.2847C31.8348 10.3147 31.9295 10.3476 32.0223 10.3814H32.0236L32.295 10.4853L32.2995 10.4877L32.3682 10.5158L32.3847 10.5224L32.4361 10.5448L32.5722 10.6053L32.6396 10.6358L32.6494 10.6396L32.707 10.6673L32.84 10.7325L32.9056 10.7654L32.9101 10.7668L33.0369 10.8345L33.0802 10.8569L33.102 10.8688L33.165 10.9036L33.1663 10.905L33.3582 11.0169L33.414 11.0498L33.4216 11.0546L33.577 11.1532L33.6086 11.1742L33.6577 11.2056L33.6698 11.2147L33.8171 11.3157L33.8528 11.3414L33.8961 11.3714L33.9135 11.3843L33.9733 11.4286L34.0331 11.4719L34.0519 11.4862L34.092 11.5167L34.1282 11.5448L34.1501 11.5624L34.2081 11.6086L34.2657 11.6549L34.2791 11.6653L34.3228 11.7025L34.3536 11.7273L34.3799 11.7497L34.4268 11.7902L34.4357 11.7983L34.4915 11.8468L34.5 11.8535L34.5478 11.8964L34.5728 11.9183L34.6031 11.9464L34.6576 11.9964L34.712 12.0474L34.7151 12.0507L34.7665 12.0993L34.7852 12.1179L34.8191 12.1517L34.8723 12.2042L34.9236 12.2551L34.9249 12.2566L34.9772 12.3099L34.9906 12.3242L35.0285 12.3637L35.0798 12.4185L35.1245 12.4671L35.1307 12.4738L35.1807 12.5295L35.1896 12.5391L35.2302 12.5853L35.2543 12.6129L35.2793 12.642L35.3177 12.6872L35.3275 12.6991L35.3758 12.7563L35.3802 12.762L35.4432 12.8368L35.4713 12.8726L35.5047 12.9135L35.5181 12.9311L35.5641 12.9902L35.565 12.9912L35.6239 13.0693L35.6329 13.0812H50.1892C50.6057 13.0812 50.9445 13.4428 50.9445 13.8873C50.9445 14.3318 50.6057 14.6934 50.1892 14.6934H36.5858L36.6023 14.732L36.6198 14.7706L36.6537 14.8487L36.6648 14.8735L36.6702 14.8878L36.6863 14.9263L36.7028 14.9659L36.7037 14.9668L36.7965 15.205L36.8117 15.2455L36.8411 15.326L36.8487 15.3456L36.8554 15.3665C37.079 16.0016 37.2339 16.6724 37.3089 17.3703H45.7896C45.8673 17.3742 45.9477 17.3875 46.0253 17.4147C46.419 17.5533 46.6328 18.0078 46.5029 18.428C46.1516 19.5556 45.6307 20.6252 44.9514 21.5847C44.6778 21.971 44.3779 22.3412 44.0511 22.6923C44.8483 22.4222 45.6241 22.0253 46.3481 21.4975C46.998 21.0249 47.5716 20.4737 48.0621 19.8682C48.5558 19.257 48.9691 18.5834 49.2963 17.8711C49.4088 17.5777 49.6793 17.3709 49.9948 17.3709H51.3192C52.0124 17.3709 52.6449 17.0669 53.1015 16.5796C53.5586 16.0932 53.8429 15.4181 53.8429 14.6772V4.77518C53.8429 4.05152 53.5724 3.39166 53.1363 2.90675L53.1015 2.87197C52.6449 2.38461 52.0124 2.08066 51.3192 2.08066H34.2627C33.5695 2.08066 32.9369 2.38461 32.4803 2.87197C32.0233 3.35838 31.7389 4.03297 31.7389 4.77479V10.2835L31.7398 10.2847ZM33.9921 13.5357C33.6876 13.2108 33.3529 12.9178 32.99 12.6639L32.9833 12.6581C32.5602 12.3623 32.1004 12.1184 31.6139 11.9354L31.6117 11.934C30.9524 11.6872 30.2431 11.5524 29.5045 11.5524C27.7512 11.5524 26.1632 12.3108 25.0151 13.5342C23.8685 14.7596 23.1583 16.4546 23.1583 18.3259C23.1583 20.1968 23.8693 21.8913 25.017 23.1157C26.1641 24.34 27.7523 25.0995 29.5045 25.0995C31.2595 25.0995 32.8468 24.3429 33.9921 23.1191C35.1415 21.8928 35.8508 20.1988 35.8508 18.3259C35.8508 16.4551 35.1397 14.76 33.9921 13.5357Z" fill="url(#paint0_linear_47_203)"/>
<path d="M35.3763 6.3725C34.9598 6.3725 34.621 6.01091 34.621 5.56641C34.621 5.12193 34.9598 4.76033 35.3763 4.76033H50.1737C50.5902 4.76033 50.929 5.12192 50.929 5.56641C50.929 6.0109 50.5902 6.3725 50.1737 6.3725H35.3763Z" fill="url(#paint1_linear_47_203)"/>
<path d="M37.4765 10.5334C37.0601 10.5334 36.7213 10.1718 36.7213 9.7273C36.7213 9.28281 37.0601 8.92122 37.4765 8.92122H48.0747C48.4911 8.92122 48.8299 9.28281 48.8299 9.7273C48.8299 10.1718 48.4912 10.5334 48.0747 10.5334H37.4765Z" fill="url(#paint2_linear_47_203)"/>
<defs>
<linearGradient id="paint0_linear_47_203" x1="10.6933" y1="-23.0106" x2="28.5861" y2="48.2116" gradientUnits="userSpaceOnUse">
<stop stop-color="#A2FFF0" stop-opacity="0.85"/>
<stop offset="0.473958" stop-color="#0AC6A7" stop-opacity="0.65"/>
<stop offset="1" stop-color="#1C91E7" stop-opacity="0.85"/>
</linearGradient>
<linearGradient id="paint1_linear_47_203" x1="10.6933" y1="-23.0106" x2="28.5861" y2="48.2116" gradientUnits="userSpaceOnUse">
<stop stop-color="#A2FFF0" stop-opacity="0.85"/>
<stop offset="0.473958" stop-color="#0AC6A7" stop-opacity="0.65"/>
<stop offset="1" stop-color="#1C91E7" stop-opacity="0.85"/>
</linearGradient>
<linearGradient id="paint2_linear_47_203" x1="10.6933" y1="-23.0106" x2="28.5861" y2="48.2116" gradientUnits="userSpaceOnUse">
<stop stop-color="#A2FFF0" stop-opacity="0.85"/>
<stop offset="0.473958" stop-color="#0AC6A7" stop-opacity="0.65"/>
<stop offset="1" stop-color="#1C91E7" stop-opacity="0.85"/>
</linearGradient>
</defs>
</svg>
