<svg width="34" height="31" viewBox="0 0 34 31" fill="none" xmlns="http://www.w3.org/2000/svg">
<path opacity="0.5" d="M12.0012 17.9298L12.0013 17.9298L12.0046 17.9227C13.7583 14.123 14.6553 10.757 14.6553 7.83721C14.6553 5.51989 14.0946 3.67708 12.8921 2.39446C11.7073 1.13062 10.198 0.499998 8.40333 0.499998C6.62982 0.499998 5.15617 1.04393 4.03428 2.16582C2.84687 3.35323 2.25992 4.85904 2.25992 6.64341C2.25992 8.42131 2.84319 9.89466 4.03408 11.0127C5.08272 12.1297 6.444 12.7121 8.07597 12.7801C7.88158 14.6547 7.3346 16.6295 6.42587 18.7066L6.42585 18.7065L6.42366 18.7117C5.43205 21.0491 3.82925 23.6899 1.6014 26.6364L1.3253 27.0016L1.66478 27.3087L3.94385 29.3708L4.33599 29.7256L4.66827 29.3142C7.72755 25.5265 10.1734 21.7318 12.0012 17.9298ZM22.1583 2.16582L22.1522 2.17192L22.1463 2.17822C21.0363 3.36751 20.4925 4.86924 20.4925 6.64341C20.4925 8.41371 21.0344 9.88523 22.1522 11.0064C23.2247 12.1521 24.625 12.7374 26.3081 12.7838C26.1135 14.6563 25.5671 16.6288 24.6599 18.7033C23.5947 21.0459 21.9535 23.6896 19.7254 26.6364L19.4429 27.0101L19.7974 27.3164L22.185 29.3784L22.5761 29.7162L22.9008 29.3142C25.9613 25.525 28.3723 21.728 30.1286 17.9227C31.8823 14.123 32.7793 10.757 32.7793 7.83721C32.7793 5.51989 32.2186 3.67709 31.0162 2.39446C29.8313 1.13062 28.3221 0.5 26.5274 0.499999C24.7539 0.499999 23.2802 1.04393 22.1583 2.16582Z" fill="url(#paint0_linear_117_22)" stroke="url(#paint1_linear_117_22)"/>
<defs>
<linearGradient id="paint0_linear_117_22" x1="26.43" y1="47.6667" x2="7.0386" y2="-5.44558" gradientUnits="userSpaceOnUse">
<stop stop-color="#A2FFF0" stop-opacity="0.85"/>
<stop offset="0.473958" stop-color="#0AC6A7" stop-opacity="0.65"/>
<stop offset="1" stop-color="#1C91E7" stop-opacity="0.85"/>
</linearGradient>
<linearGradient id="paint1_linear_117_22" x1="26.43" y1="47.6667" x2="7.0386" y2="-5.44558" gradientUnits="userSpaceOnUse">
<stop stop-color="#A2FFF0" stop-opacity="0.85"/>
<stop offset="0.473958" stop-color="#0AC6A7" stop-opacity="0.65"/>
<stop offset="1" stop-color="#1C91E7" stop-opacity="0.85"/>
</linearGradient>
</defs>
</svg>
