<svg width="39" height="33" viewBox="0 0 39 33" fill="none" xmlns="http://www.w3.org/2000/svg">
<path d="M26.346 32.6936H9.70648C8.24704 32.6936 7.05941 31.426 7.05941 29.8683C7.05941 27.7907 8.51174 26.0053 10.4371 25.7114L17.5629 24.5172L5.54823 11.6944C4.23354 10.2912 4.23354 8.00824 5.54823 6.60696C6.87351 5.19245 9.0125 5.19431 10.3254 6.59561L13.4525 9.93335C13.6062 9.37554 13.8883 8.85207 14.2995 8.41317C15.5138 7.11531 17.4178 7.00996 18.7379 8.08555C18.8897 7.51482 19.1754 6.97811 19.5937 6.52977C20.8097 5.23191 22.7138 5.12471 24.0337 6.20404C24.182 5.63141 24.4677 5.09474 24.8878 4.64633C26.2131 3.23181 28.3521 3.23367 29.665 4.63497L36.3004 12.4178C37.9273 14.3277 38.8239 16.8008 38.8239 19.3812C38.8239 22.1443 37.8162 24.7436 35.9845 26.6967L33.2087 29.6595C31.3749 31.6167 28.9384 32.6936 26.346 32.6936ZM7.94202 7.42404C7.53078 7.42404 7.11953 7.59179 6.80552 7.92509C6.17034 8.60493 6.17034 9.69374 6.79695 10.3622L20.0376 24.4944C20.2722 24.7448 20.3552 25.1159 20.253 25.4511C20.149 25.7882 19.879 26.0351 19.5507 26.0897L10.7004 27.5739C9.62535 27.7379 8.82412 28.7233 8.82412 29.8682C8.82412 30.3882 9.21941 30.8101 9.70658 30.8101H26.3461C28.4673 30.8101 30.4615 29.9285 31.9614 28.3276L34.7372 25.3648C36.2354 23.7657 37.0593 21.6411 37.0593 19.3809C37.0593 17.2695 36.3252 15.2466 34.9964 13.6851L28.3893 5.93439C27.7911 5.30154 26.7745 5.29964 26.1464 5.96656C25.8324 6.30174 25.6663 6.73122 25.6663 7.18911C25.6663 7.64696 25.8339 8.07803 26.1376 8.40214L26.2135 8.48317C26.5577 8.85053 26.5577 9.44741 26.2135 9.81478C25.8764 10.1765 25.3293 10.184 24.9836 9.8337C24.9836 9.8337 24.9836 9.83181 24.9818 9.83181H24.98L24.9747 9.82614C24.9747 9.82614 24.9765 9.82614 24.9729 9.82424L23.1235 7.84967C22.4987 7.18276 21.4771 7.18276 20.8523 7.84967C20.2153 8.52952 20.2153 9.61646 20.8416 10.2853L22.6822 12.2497C22.8553 12.4342 22.9419 12.6754 22.9419 12.9163C22.9419 13.1576 22.8553 13.3985 22.6843 13.5832C22.3401 13.9506 21.7809 13.9506 21.4367 13.5832L17.8295 9.73315C17.2046 9.06624 16.183 9.06624 15.5582 9.73315C14.9212 10.4133 14.9212 11.4999 15.5476 12.1687L19.153 16.017C19.3259 16.2014 19.4124 16.4423 19.4124 16.6836C19.4124 16.9248 19.3259 17.1657 19.1548 17.3505C18.8106 17.7178 18.2514 17.7178 17.9072 17.3505L9.07806 7.92685C8.76402 7.59166 8.35324 7.42404 7.94202 7.42404Z" fill="url(#paint0_linear_47_209)"/>
<path d="M5.04537 16.9493C4.92365 16.9493 4.80016 16.9228 4.68169 16.8664C1.83904 15.4935 0 12.4648 0 9.14976C0 4.47661 3.56289 0.673828 7.94123 0.673828C11.0471 0.673828 13.8847 2.63637 15.1696 5.67075C15.3707 6.14532 15.1731 6.7028 14.7285 6.91752C14.2853 7.13415 13.7612 6.92131 13.5618 6.44674C12.5614 4.08462 10.3554 2.55718 7.94123 2.55718C4.5355 2.55718 1.76492 5.51431 1.76492 9.14968C1.76492 11.7265 3.196 14.0807 5.40911 15.1487C5.85196 15.3634 6.04961 15.9209 5.85019 16.3955C5.70188 16.742 5.38072 16.9493 5.04537 16.9493Z" fill="url(#paint1_linear_47_209)"/>
<defs>
<linearGradient id="paint0_linear_47_209" x1="7.5" y1="-20.6727" x2="27.7652" y2="41.562" gradientUnits="userSpaceOnUse">
<stop stop-color="#A2FFF0" stop-opacity="0.85"/>
<stop offset="0.473958" stop-color="#0AC6A7" stop-opacity="0.65"/>
<stop offset="1" stop-color="#1C91E7" stop-opacity="0.85"/>
</linearGradient>
<linearGradient id="paint1_linear_47_209" x1="7.5" y1="-20.6727" x2="27.7652" y2="41.562" gradientUnits="userSpaceOnUse">
<stop stop-color="#A2FFF0" stop-opacity="0.85"/>
<stop offset="0.473958" stop-color="#0AC6A7" stop-opacity="0.65"/>
<stop offset="1" stop-color="#1C91E7" stop-opacity="0.85"/>
</linearGradient>
</defs>
</svg>
