<svg width="33" height="31" viewBox="0 0 33 31" fill="none" xmlns="http://www.w3.org/2000/svg">
<path opacity="0.5" d="M21.2781 13.0702L21.278 13.0701L21.2747 13.0773C19.521 16.877 18.624 20.243 18.624 23.1628C18.624 25.4801 19.1847 27.3229 20.3872 28.6055C21.572 29.8694 23.0813 30.5 24.876 30.5C26.6495 30.5 28.1231 29.9561 29.245 28.8342C30.4324 27.6468 31.0194 26.141 31.0194 24.3566C31.0194 22.5787 30.4361 21.1053 29.2452 19.9873C28.1966 18.8703 26.8353 18.2879 25.2033 18.2199C25.3977 16.3453 25.9447 14.3705 26.8534 12.2934L26.8535 12.2934L26.8556 12.2883C27.8472 9.95094 29.45 7.31008 31.6779 4.36358L31.954 3.9984L31.6145 3.69125L29.3355 1.62923L28.9433 1.27443L28.611 1.68583C25.5517 5.47351 23.1059 9.26816 21.2781 13.0702ZM11.121 28.8342L11.1271 28.8281L11.133 28.8218C12.243 27.6325 12.7868 26.1308 12.7868 24.3566C12.7868 22.5863 12.2449 21.1148 11.1271 19.9936C10.0546 18.8479 8.65429 18.2626 6.97116 18.2162C7.16579 16.3437 7.71217 14.3712 8.61944 12.2967C9.68465 9.95412 11.3258 7.31039 13.5539 4.36358L13.8364 3.98985L13.4818 3.68361L11.0943 1.62159L10.7032 1.28383L10.3785 1.68583C7.31801 5.47498 4.90697 9.27198 3.15067 13.0773C1.39696 16.877 0.5 20.243 0.5 23.1628C0.5 25.4801 1.06068 27.3229 2.26314 28.6055C3.44799 29.8694 4.95722 30.5 6.75194 30.5C8.52545 30.5 9.9991 29.9561 11.121 28.8342Z" fill="url(#paint0_linear_47_321)" stroke="url(#paint1_linear_47_321)"/>
<defs>
<linearGradient id="paint0_linear_47_321" x1="6.8493" y1="-16.6667" x2="26.2407" y2="36.4456" gradientUnits="userSpaceOnUse">
<stop stop-color="#A2FFF0" stop-opacity="0.85"/>
<stop offset="0.473958" stop-color="#0AC6A7" stop-opacity="0.65"/>
<stop offset="1" stop-color="#1C91E7" stop-opacity="0.85"/>
</linearGradient>
<linearGradient id="paint1_linear_47_321" x1="6.8493" y1="-16.6667" x2="26.2407" y2="36.4456" gradientUnits="userSpaceOnUse">
<stop stop-color="#A2FFF0" stop-opacity="0.85"/>
<stop offset="0.473958" stop-color="#0AC6A7" stop-opacity="0.65"/>
<stop offset="1" stop-color="#1C91E7" stop-opacity="0.85"/>
</linearGradient>
</defs>
</svg>
