<svg width="20" height="21" viewBox="0 0 20 21" fill="none" xmlns="http://www.w3.org/2000/svg">
<path d="M10.8409 11.2902L10.5878 11.5457H10.9475H13.0949C13.6863 11.5457 14.1869 12.0304 14.1869 12.6465C14.1869 13.2446 13.7041 13.7473 13.0949 13.7473H7.93697C7.34553 13.7473 6.84491 13.2626 6.84491 12.6465V7.45247C6.84491 6.85433 7.32771 6.35171 7.93697 6.35171C8.52841 6.35171 9.02904 6.83638 9.02904 7.45247L9.02908 9.59376L9.02909 9.95767L9.28551 9.69945L17.2645 1.66462C17.69 1.23613 18.3945 1.23613 18.82 1.66462C19.2461 2.09369 19.2461 2.80493 18.82 3.234L18.8198 3.23414L10.8409 11.2902ZM17.6448 10.5476C17.6448 9.8877 17.5666 9.24594 17.4094 8.64173L19.1488 6.89016C19.6103 8.02245 19.85 9.24703 19.85 10.5476C19.85 16.0201 15.432 20.4676 10 20.4676C4.56804 20.4676 0.15 16.0201 0.15 10.5476C0.15 5.07501 4.56841 0.627539 10 0.627539C11.2691 0.627539 12.5024 0.886953 13.6303 1.3366L11.8898 3.08923C11.2953 2.94939 10.6587 2.85036 10.0001 2.85036C5.79001 2.85036 2.35534 6.31028 2.35534 10.5476C2.35534 14.7849 5.78993 18.245 10.0001 18.2448C14.2101 18.2448 17.6448 14.7847 17.6448 10.5476Z" fill="#D9D9D9" stroke="white" stroke-width="0.3"/>
</svg>
