<svg width="35" height="38" viewBox="0 0 35 38" fill="none" xmlns="http://www.w3.org/2000/svg">
<path d="M26.4894 14.6896H21.5527V9.3809C21.5527 8.98756 21.2579 8.67323 20.8896 8.67323H14.1475C13.779 8.67323 13.4845 8.98785 13.4845 9.3809L13.4472 14.6896H8.47343C8.1049 14.6896 7.8104 15.0042 7.8104 15.3973V22.5934C7.8104 22.9867 8.10517 23.301 8.47343 23.301L13.4472 23.3408V28.6495C13.4472 28.8462 13.521 29.0034 13.6315 29.1608C13.742 29.2787 13.9263 29.3575 14.1105 29.3575H20.8526C21.2212 29.3575 21.5157 29.0428 21.5157 28.6498L21.5527 23.3409H26.5265C26.895 23.3409 27.1895 23.0263 27.1895 22.6332V15.4371C27.1895 15.0438 26.8577 14.6896 26.4894 14.6896ZM25.8261 21.8857H20.8523C20.4838 21.8857 20.1893 22.2003 20.1893 22.5934V27.9021H14.8102L14.8105 22.5936C14.8105 22.2003 14.5157 21.886 14.1475 21.886H9.17365V16.1447H14.1475C14.516 16.1447 14.8105 15.8301 14.8105 15.437V10.1283H20.1896V15.437C20.1896 15.8304 20.4843 16.1447 20.8526 16.1447H25.8264L25.8261 21.8857Z" fill="url(#paint0_linear_47_206)"/>
<path d="M17.5 0.336914C7.84737 0.336914 0 8.71267 0 19.0152C0 29.3178 7.84737 37.6936 17.5 37.6936C27.1526 37.6936 35 29.3178 35 19.0152C35 8.71267 27.1526 0.336914 17.5 0.336914ZM17.5 36.2386C8.58421 36.2386 1.36316 28.5314 1.36316 19.0152C1.36316 9.49912 8.58421 1.79186 17.5 1.79186C26.4158 1.79186 33.6368 9.49912 33.6368 19.0152C33.6368 28.5314 26.4158 36.2386 17.5 36.2386Z" fill="url(#paint1_linear_47_206)"/>
<defs>
<linearGradient id="paint0_linear_47_206" x1="6.76129" y1="-24.5675" x2="35.4993" y2="43.6284" gradientUnits="userSpaceOnUse">
<stop stop-color="#A2FFF0" stop-opacity="0.85"/>
<stop offset="0.473958" stop-color="#0AC6A7" stop-opacity="0.65"/>
<stop offset="1" stop-color="#1C91E7" stop-opacity="0.85"/>
</linearGradient>
<linearGradient id="paint1_linear_47_206" x1="6.76129" y1="-24.5675" x2="35.4993" y2="43.6284" gradientUnits="userSpaceOnUse">
<stop stop-color="#A2FFF0" stop-opacity="0.85"/>
<stop offset="0.473958" stop-color="#0AC6A7" stop-opacity="0.65"/>
<stop offset="1" stop-color="#1C91E7" stop-opacity="0.85"/>
</linearGradient>
</defs>
</svg>
