<svg width="44" height="44" viewBox="0 0 44 44" fill="none" xmlns="http://www.w3.org/2000/svg">
<path fill-rule="evenodd" clip-rule="evenodd" d="M37.5898 6.39418C33.4535 2.27284 27.9526 0.00244444 22.0921 0C10.0164 0 0.188637 9.78022 0.183724 21.8015C0.182251 25.6442 1.19077 29.3949 3.10808 32.7018L0 44L11.6139 40.9679C14.8139 42.7049 18.4166 43.6206 22.0833 43.6216H22.0921C22.0926 43.6216 22.0916 43.6216 22.0921 43.6216C34.1663 43.6216 43.9951 33.8404 44 21.8186C44.0025 15.993 41.726 10.5155 37.5898 6.39418ZM13.1952 22.595C12.9216 22.2312 10.9601 19.6411 10.9601 16.9596C10.9601 14.278 12.3744 12.96 12.8759 12.4148C13.3775 11.8697 13.9709 11.7333 14.3359 11.7333C14.7009 11.7333 15.0664 11.7368 15.3852 11.7524C15.7212 11.7695 16.1726 11.6253 16.6167 12.6876C17.0731 13.7784 18.1676 16.4604 18.3046 16.7327C18.4417 17.0055 18.5326 17.3233 18.3503 17.687C18.1681 18.0503 18.0767 18.2776 17.8031 18.5959C17.5295 18.9141 17.2283 19.3062 16.9817 19.5502C16.7076 19.822 16.4222 20.1168 16.7415 20.6619C17.0608 21.2075 18.1592 22.9915 19.7867 24.4361C21.8774 26.2924 23.6415 26.8674 24.1887 27.1402C24.736 27.413 25.0553 27.3675 25.3746 27.0038C25.6939 26.64 26.7432 25.4129 27.1082 24.8678C27.4732 24.3227 27.8382 24.4136 28.3397 24.595C28.8418 24.7769 31.5328 26.0949 32.08 26.3672C32.6273 26.64 32.9923 26.7764 33.1293 27.0038C33.2664 27.2311 33.2664 28.3218 32.81 29.5944C32.3536 30.867 30.1666 32.0286 29.1149 32.1845C28.1717 32.3248 26.9785 32.3835 25.6669 31.9684C24.872 31.7176 23.8522 31.3823 22.546 30.821C17.0554 28.4612 13.4693 22.9587 13.1952 22.595Z" fill="white"/>
</svg>
