<svg width="183" height="62" viewBox="0 0 183 62" fill="none" xmlns="http://www.w3.org/2000/svg">
<path d="M9.01497 10.053C8.45335 8.68709 8.17325 7.04747 9.87155 6.12151C10.9003 5.51691 11.9087 6.03081 12.4997 6.99453C13.2846 8.25332 13.623 9.72635 12.429 10.9093C11.4581 11.985 9.67349 11.5664 9.01497 10.053Z" fill="url(#paint0_linear_47_41)"/>
<path d="M8.72193 12.7993C8.85693 13.8987 8.89501 14.8506 7.30373 15.3649C6.24609 15.7339 5.33498 14.7297 4.8799 13.5899C4.41517 12.3715 4.41609 11.096 5.58074 10.3152C7.19178 9.32027 7.85029 10.8337 8.35406 11.7285C8.56714 12.1806 8.72193 12.7993 8.72193 12.7993Z" fill="url(#paint1_linear_47_41)"/>
<path d="M5.41112 16.6336C5.83727 17.5378 6.1757 19.0108 4.99176 19.6345C3.57499 20.2867 2.68316 19.4397 2.05356 18.1618C1.52087 17.0315 1.46351 15.9225 2.80267 15.2798C4.07386 14.7252 4.81045 15.5913 5.41112 16.6336Z" fill="url(#paint2_linear_47_41)"/>
<path d="M19.7572 5.14686C19.574 3.65477 19.586 0.544399 22.1665 0.386986C24.8246 0.220042 25.5892 2.59733 25.8592 4.7962C26.1002 6.75948 25.5748 8.89658 23.2272 9.0254C20.8019 9.16376 20.0079 7.18867 19.7572 5.14686Z" fill="url(#paint3_linear_47_41)"/>
<path d="M17.8825 8.48592C16.8923 9.40464 15.0103 9.4763 14.0997 7.83438C13.1794 6.11393 12.9287 4.07212 14.5108 2.84156C15.957 1.78713 17.8867 2.74591 18.3997 4.35695C18.8061 5.74192 18.8143 7.73378 17.8825 8.48592Z" fill="url(#paint4_linear_47_41)"/>
<path d="M19.2299 9.83505C19.2299 9.83505 24.7403 9.15846 26.7627 16.0048C27.5851 18.8533 26.1178 22.3017 24.7676 24.7792C24.7676 24.7792 22.2035 28.9204 21.561 32.0285C20.996 35.127 20.4803 37.3426 21.6127 40.7908C22.7451 44.2389 25.0036 46.5922 25.0036 46.5922C25.0036 46.5922 28.4644 49.7544 26.3265 54.7998C24.8105 58.4934 21.8318 59.2577 19.0281 59.5223C16.3021 59.7773 13.6059 58.4752 12.3563 56.5151C12.2829 56.3999 10.6792 55.047 10.5605 45.0972C10.4944 42.6342 9.39042 40.0595 8.30574 37.6418C5.41953 31.4595 4.89883 27.2188 4.89883 27.2188C4.89883 27.2188 4.31019 23.0662 6.95184 18.9155C9.58385 14.6863 12.4372 12.9011 13.757 12.1013C16.9695 10.0329 19.2299 9.83505 19.2299 9.83505Z" fill="url(#paint5_linear_47_41)"/>
<path d="M26.7642 23.0069C27.1972 22.0024 27.4252 20.7917 26.1791 20.0846C25.4249 19.624 24.6716 19.9919 24.2219 20.6982C23.6249 21.6206 23.3558 22.7072 24.2252 23.5981C24.9307 24.407 26.2575 24.1194 26.7642 23.0069Z" fill="url(#paint6_linear_47_41)"/>
<path d="M26.9467 25.0443C26.833 25.8568 26.7928 26.5612 27.9648 26.962C28.7434 27.2485 29.4307 26.5163 29.782 25.6779C30.1415 24.7815 30.1568 23.8369 29.3041 23.2441C28.1235 22.4871 27.6169 23.5996 27.2326 24.2559C27.0691 24.588 26.9467 25.0443 26.9467 25.0443Z" fill="url(#paint7_linear_47_41)"/>
<path d="M29.3505 27.9253C29.0236 28.5896 28.7545 29.6762 29.6234 30.1529C30.6644 30.6537 31.3355 30.0375 31.8178 29.0991C32.2264 28.2687 32.2828 27.4482 31.2991 26.9555C30.3647 26.5288 29.8084 27.1609 29.3505 27.9253Z" fill="url(#paint8_linear_47_41)"/>
<path d="M18.8705 19.2389C19.0249 18.1362 19.055 15.8327 17.146 15.6838C15.1796 15.5268 14.5836 17.2777 14.3561 18.9027C14.153 20.3536 14.5153 21.9428 16.2522 22.0677C18.0465 22.2005 18.6593 20.7478 18.8705 19.2389Z" fill="url(#paint9_linear_47_41)"/>
<path d="M20.217 21.7352C20.9387 22.4279 22.3315 22.5046 23.0265 21.3001C23.7296 20.0376 23.9408 18.5286 22.7846 17.5975C21.7269 16.7985 20.2858 17.4843 19.8858 18.671C19.5674 19.6915 19.5364 21.1665 20.217 21.7352Z" fill="url(#paint10_linear_47_41)"/>
<path d="M19.2023 22.7174C19.2023 22.7174 15.13 22.1472 13.5465 27.1919C12.9017 29.291 13.9451 31.8632 14.9139 33.7149C14.9139 33.7149 16.7608 36.8137 17.1977 39.1235C17.5772 41.4252 17.9314 43.0724 17.0495 45.6117C16.1677 48.1511 14.4657 49.8655 14.4657 49.8655C14.4657 49.8655 11.8631 52.1639 13.3831 55.927C14.3848 58.4071 16.6003 59.7402 18.6571 59.7044C21.0598 59.834 22.9635 58.9252 23.7072 57.3725C23.7544 57.0438 24.9676 56.3063 25.1802 48.9395C25.2601 47.1163 26.1099 45.2234 26.9435 43.4466C29.1584 38.9045 29.5971 35.7706 29.5971 35.7706C29.5971 35.7706 30.0851 32.7028 28.1809 29.5959C26.2848 26.4309 24.1941 25.0731 23.2267 24.4643C20.8737 22.8922 19.2023 22.7174 19.2023 22.7174Z" fill="url(#paint11_linear_47_41)"/>
<path d="M16.674 34.2708C16.4737 33.5573 16.4336 32.7249 17.3551 32.3682C17.916 32.1303 18.3968 32.4474 18.6372 32.9627C18.9577 33.6366 19.0379 34.3897 18.3568 34.905C17.7958 35.3807 16.9144 35.0636 16.674 34.2708Z" fill="url(#paint12_linear_47_41)"/>
<path d="M16.3535 35.6185C16.3535 36.1734 16.3134 36.6491 15.4721 36.8077C14.9112 36.9266 14.5105 36.3716 14.3503 35.7771C14.19 35.1428 14.2701 34.5086 14.9112 34.1915C15.7926 33.7951 16.033 34.5879 16.2333 35.0636C16.3134 35.3014 16.3535 35.6185 16.3535 35.6185Z" fill="url(#paint13_linear_47_41)"/>
<path d="M14.4304 37.323C14.5906 37.7986 14.6708 38.5517 14.0297 38.7896C13.2685 39.0274 12.8678 38.5517 12.6275 37.8779C12.4271 37.2833 12.4672 36.7284 13.1884 36.4906C13.8695 36.2924 14.19 36.768 14.4304 37.323Z" fill="url(#paint14_linear_47_41)"/>
<path d="M22.4433 32.4871C22.4433 31.734 22.6437 30.1881 23.9658 30.2673C25.328 30.3466 25.5684 31.5754 25.5684 32.6853C25.5684 33.6762 25.1678 34.7068 23.9658 34.6276C22.7238 34.5483 22.4433 33.5177 22.4433 32.4871Z" fill="url(#paint15_linear_47_41)"/>
<path d="M21.2815 34.033C20.7206 34.4294 19.759 34.3501 19.3984 33.478C19.0378 32.5664 19.0378 31.5358 19.9193 31.0205C20.7205 30.5844 21.642 31.179 21.8023 32.0114C21.9225 32.7249 21.8023 33.7159 21.2815 34.033Z" fill="url(#paint16_linear_47_41)"/>
<path d="M21.8824 34.7861C21.8824 34.7861 24.727 34.7861 25.328 38.3139C25.5684 39.7805 24.6069 41.4057 23.7655 42.5552C23.7655 42.5552 22.203 44.4579 21.6821 45.9641C21.2013 47.4704 20.8007 48.5406 21.1613 50.3243C21.5219 52.108 22.5235 53.4161 22.5235 53.4161C22.5235 53.4161 24.086 55.1998 22.6837 57.5781C21.6821 59.3222 20.1196 59.5204 18.6773 59.4808C17.275 59.4411 15.9043 58.1858 15.613 57.8058C15.0981 57.1341 14.7108 56.7457 15.2717 51.7909C15.3919 50.5621 14.9913 49.2145 14.5906 47.946C13.5089 44.6957 13.5089 42.5552 13.5089 42.5552C13.5089 42.5552 13.4688 40.4544 15.0714 38.5517C16.674 36.6095 18.2365 35.896 18.9577 35.5789C20.7206 34.7465 21.8824 34.7861 21.8824 34.7861Z" fill="url(#paint17_linear_47_41)"/>
<path d="M40.5213 37.7343H41.8919C42.0975 37.7343 42.2345 37.5981 42.2345 37.3939V28.8501H45.7294C49.1215 28.8501 51.3144 26.6036 51.3144 23.3699V19.6937C51.3144 16.1196 49.1558 13.5667 45.7294 13.5667C42.303 13.5667 40.1787 16.1196 40.1787 19.6937V37.3939C40.1787 37.5981 40.3158 37.7343 40.5213 37.7343ZM42.2345 26.944V19.6937C42.2345 17.1748 43.5708 15.4728 45.7294 15.4728C47.888 15.4728 49.2585 17.1748 49.2585 19.6937V23.3699C49.2585 25.5484 47.8537 26.944 45.7294 26.944H42.2345Z" fill="#275170"/>
<path d="M54.8759 37.7343H56.2464C56.452 37.7343 56.5891 37.5981 56.5891 37.3939V29.0884H63.7844V37.3939C63.7844 37.5981 63.9215 37.7343 64.127 37.7343H65.4976C65.7032 37.7343 65.8402 37.5981 65.8402 37.3939V19.7277C65.8402 16.0515 63.5788 13.6007 60.1867 13.6007C56.7946 13.6007 54.5332 16.0515 54.5332 19.7277V37.3939C54.5332 37.5981 54.6703 37.7343 54.8759 37.7343ZM56.5891 27.1822V19.7277C56.5891 17.0727 57.8911 15.5069 60.1867 15.5069C62.4824 15.5069 63.7844 17.0727 63.7844 19.7277V27.1822H56.5891Z" fill="#275170"/>
<path d="M77.973 25.4803C79.7204 24.9697 80.8168 23.1997 80.8168 20.9191V19.2852C80.8168 15.8813 78.6582 13.6007 75.3689 13.6007C72.2167 13.6007 70.0924 15.8813 70.0924 19.2852V36.7812C70.0924 37.3939 70.5035 37.8024 71.1203 37.8024H75.8144C79.1722 37.8024 81.3993 35.5218 81.3993 32.0838V30.4159C81.3993 28.0332 80.063 26.127 77.973 25.4803ZM72.1482 19.2852C72.1482 16.9025 73.3474 15.5069 75.3689 15.5069C77.5275 15.5069 78.761 16.9025 78.761 19.2852V20.9191C78.761 23.3018 77.4933 24.6974 75.3347 24.6974H72.1482V19.2852ZM79.3435 32.0838C79.3435 34.4666 78.0415 35.8962 75.8144 35.8962H72.1482V26.6036H75.8144C78.0415 26.6036 79.3435 28.0332 79.3435 30.4159V32.0838Z" fill="#275170"/>
<path d="M93.9641 14.2474V24.6974H87.1114V14.2474C87.1114 14.0432 86.9744 13.907 86.7688 13.907H85.3983C85.1927 13.907 85.0556 14.0432 85.0556 14.2474V37.3939C85.0556 37.5981 85.1927 37.7343 85.3983 37.7343H86.7688C86.9744 37.7343 87.1114 37.5981 87.1114 37.3939V26.5695H93.9641V37.3939C93.9641 37.5981 94.1012 37.7343 94.3068 37.7343H95.6773C95.8829 37.7343 96.0199 37.5981 96.0199 37.3939V14.2474C96.0199 14.0432 95.8829 13.907 95.6773 13.907H94.3068C94.1012 13.907 93.9641 14.0432 93.9641 14.2474Z" fill="#275170"/>
<path d="M105.921 38.0406C109.347 38.0406 111.746 35.4877 111.746 32.0838V19.5575C111.746 16.1536 109.347 13.6007 105.921 13.6007C102.494 13.6007 100.096 16.1536 100.096 19.8979V31.7434C100.096 35.4877 102.494 38.0406 105.921 38.0406ZM105.921 36.1345C103.694 36.1345 102.152 34.4325 102.152 31.7434V19.8979C102.152 17.2088 103.694 15.5069 105.921 15.5069C108.148 15.5069 109.69 17.2088 109.69 19.5575V32.0838C109.69 34.4325 108.148 36.1345 105.921 36.1345Z" fill="#275170"/>
<path d="M123.446 25.4803C125.193 24.9697 126.29 23.1997 126.29 20.9191V19.2852C126.29 15.8813 124.131 13.6007 120.842 13.6007C117.689 13.6007 115.565 15.8813 115.565 19.2852V36.7812C115.565 37.3939 115.976 37.8024 116.593 37.8024H121.287C124.645 37.8024 126.872 35.5218 126.872 32.0838V30.4159C126.872 28.0332 125.536 26.127 123.446 25.4803ZM117.621 19.2852C117.621 16.9025 118.82 15.5069 120.842 15.5069C123 15.5069 124.234 16.9025 124.234 19.2852V20.9191C124.234 23.3018 122.966 24.6974 120.807 24.6974H117.621V19.2852ZM124.816 32.0838C124.816 34.4666 123.514 35.8962 121.287 35.8962H117.621V26.6036H121.287C123.514 26.6036 124.816 28.0332 124.816 30.4159V32.0838Z" fill="#275170"/>
<path d="M134.792 37.8024H138.355C138.561 37.8024 138.698 37.6662 138.698 37.462V36.2366C138.698 36.0324 138.561 35.8962 138.355 35.8962H134.792C132.701 35.8962 131.262 34.1942 131.262 31.9477V26.6036H137.533C137.738 26.6036 137.875 26.4674 137.875 26.2632V25.0378C137.875 24.8335 137.738 24.6974 137.533 24.6974H131.262V19.6937C131.262 17.4471 132.701 15.7451 134.792 15.7451H138.355C138.561 15.7451 138.698 15.609 138.698 15.4048V14.1794C138.698 13.9751 138.561 13.839 138.355 13.839H134.792C131.502 13.839 129.207 16.3919 129.207 19.6937V31.9477C129.207 35.2495 131.502 37.8024 134.792 37.8024Z" fill="#275170"/>
<path d="M147.138 38.0747C150.496 38.0747 152.792 35.4877 152.895 31.5732C152.895 31.369 152.758 31.2669 152.552 31.2669H151.182C150.976 31.2669 150.839 31.369 150.839 31.6073C150.77 34.4666 149.4 36.1685 147.138 36.1685C144.911 36.1685 143.609 34.7048 143.609 32.22V19.4213C143.609 16.9365 144.911 15.4728 147.138 15.4728C149.194 15.4728 150.565 17.0386 150.668 19.8639C150.668 20.1021 150.805 20.2042 151.01 20.2042H152.381C152.586 20.2042 152.723 20.0681 152.723 19.8639C152.621 16.0855 150.359 13.5667 147.138 13.5667C143.781 13.5667 141.553 15.9153 141.553 19.4213V32.22C141.553 35.726 143.781 38.0747 147.138 38.0747Z" fill="#275170"/>
<path d="M164.963 14.2474V35.8962H161.537C159.378 35.8962 158.008 34.1942 158.008 31.7775V14.2474C158.008 14.0432 157.871 13.907 157.665 13.907H156.295C156.089 13.907 155.952 14.0432 155.952 14.2474V31.7775C155.952 35.2495 158.145 37.8024 161.537 37.8024H165.991C166.642 37.8024 167.019 37.4279 167.019 36.7812V14.2474C167.019 14.0432 166.882 13.907 166.676 13.907H165.306C165.1 13.907 164.963 14.0432 164.963 14.2474Z" fill="#275170"/>
<path d="M176.684 37.8024H180.247C180.453 37.8024 180.59 37.6662 180.59 37.462V36.2366C180.59 36.0324 180.453 35.8962 180.247 35.8962H176.684C174.594 35.8962 173.155 34.1942 173.155 31.9477V26.6036H179.425C179.631 26.6036 179.768 26.4674 179.768 26.2632V25.0378C179.768 24.8335 179.631 24.6974 179.425 24.6974H173.155V19.6937C173.155 17.4471 174.594 15.7451 176.684 15.7451H180.247C180.453 15.7451 180.59 15.609 180.59 15.4048V14.1794C180.59 13.9751 180.453 13.839 180.247 13.839H176.684C173.395 13.839 171.099 16.3919 171.099 19.6937V31.9477C171.099 35.2495 173.395 37.8024 176.684 37.8024Z" fill="#275170"/>
<path d="M43.4958 51.3499L41.5657 48.7226H40.7581V51.3499H40.2462V45.7799H40.7581V48.2684H41.2646L43.3315 45.7799H43.9393L41.8614 48.2902L44.109 51.3499H43.4958Z" fill="#275170"/>
<path d="M45.072 45.7799H45.5758V50.4496H45.6196L48.9404 45.7799H49.4386V51.3499H48.9267V46.6855H48.8829L45.5675 51.3499H45.072V45.7799Z" fill="#275170"/>
<path d="M50.9293 51.3499V45.7799H51.4412V48.3337H54.6224V45.7799H55.1343V51.3499H54.6224V48.7906H51.4412V51.3499H50.9293Z" fill="#275170"/>
<path d="M56.6209 51.3499V45.7799H59.8733V46.2368H57.1328V48.3337H59.7008V48.7906H57.1328V50.893H59.928V51.3499H56.6209Z" fill="#275170"/>
<path d="M62.8984 51.426C62.5534 51.426 62.245 51.3644 61.9731 51.2411C61.7011 51.116 61.4857 50.9428 61.327 50.7216C61.1682 50.5004 61.0842 50.2457 61.0751 49.9574H61.5925C61.6016 50.1604 61.6646 50.3381 61.7814 50.4904C61.8982 50.6409 62.0534 50.7588 62.2468 50.844C62.4403 50.9274 62.6556 50.9691 62.8929 50.9691C63.1521 50.9691 63.3802 50.9211 63.5773 50.825C63.7763 50.7289 63.9314 50.5974 64.0427 50.4306C64.1559 50.262 64.2125 50.0716 64.2125 49.8595C64.2125 49.6346 64.155 49.4361 64.04 49.2638C63.925 49.0916 63.7598 48.9574 63.5445 48.8613C63.3309 48.7652 63.0754 48.7172 62.7779 48.7172H62.4494V48.2603H62.7779C63.0207 48.2603 63.2351 48.2167 63.4213 48.1297C63.6093 48.0409 63.7571 47.9167 63.8648 47.7571C63.9725 47.5975 64.0263 47.4099 64.0263 47.1941C64.0263 46.9892 63.9798 46.8088 63.8867 46.6529C63.7936 46.497 63.6622 46.3746 63.4925 46.2857C63.3246 46.1969 63.1283 46.1525 62.9039 46.1525C62.6867 46.1525 62.4877 46.1942 62.307 46.2776C62.1264 46.361 61.9804 46.4788 61.869 46.6311C61.7595 46.7834 61.7011 46.9639 61.6938 47.1724H61.1983C61.2056 46.8823 61.2859 46.6275 61.4392 46.4081C61.5943 46.1869 61.7997 46.0147 62.0552 45.8914C62.3125 45.7663 62.5972 45.7037 62.9093 45.7037C63.2397 45.7037 63.5253 45.7708 63.7662 45.905C64.0071 46.0391 64.1933 46.2177 64.3247 46.4408C64.4579 46.662 64.5246 46.9058 64.5246 47.1724C64.5246 47.4897 64.4379 47.7616 64.2645 47.9883C64.0911 48.2131 63.8575 48.369 63.5636 48.4561V48.4914C63.9214 48.5621 64.2024 48.7199 64.4068 48.9647C64.6131 49.2076 64.7162 49.5059 64.7162 49.8595C64.7162 50.1568 64.6377 50.4243 64.4808 50.6618C64.3238 50.8975 64.1084 51.0842 63.8347 51.222C63.5627 51.358 63.2506 51.426 62.8984 51.426Z" fill="#275170"/>
<path d="M66.0467 45.7799H66.5504V50.4496H66.5942L69.915 45.7799H70.4133V51.3499H69.9014V46.6855H69.8576L66.5422 51.3499H66.0467V45.7799Z" fill="#275170"/>
<path d="M76.5005 48.5649C76.5005 49.1451 76.3965 49.65 76.1884 50.0798C75.9804 50.5077 75.6938 50.8395 75.3288 51.0752C74.9656 51.3091 74.5476 51.426 74.0749 51.426C73.6022 51.426 73.1834 51.3091 72.8183 51.0752C72.4552 50.8395 72.1695 50.5077 71.9615 50.0798C71.7552 49.65 71.6521 49.1451 71.6521 48.5649C71.6521 47.9847 71.7552 47.4806 71.9615 47.0527C72.1695 46.623 72.4561 46.2912 72.8211 46.0573C73.1861 45.8216 73.6041 45.7037 74.0749 45.7037C74.5476 45.7037 74.9656 45.8216 75.3288 46.0573C75.6938 46.2912 75.9804 46.623 76.1884 47.0527C76.3965 47.4806 76.5005 47.9847 76.5005 48.5649ZM76.0023 48.5649C76.0023 48.0662 75.9183 47.6393 75.7504 47.2839C75.5825 46.9267 75.3534 46.6538 75.0632 46.4652C74.773 46.2767 74.4436 46.1824 74.0749 46.1824C73.7081 46.1824 73.3796 46.2767 73.0894 46.4652C72.7992 46.6538 72.5692 46.9258 72.3995 47.2812C72.2316 47.6365 72.1476 48.0644 72.1476 48.5649C72.1476 49.0635 72.2316 49.4905 72.3995 49.8459C72.5674 50.2012 72.7964 50.4741 73.0866 50.6645C73.3768 50.8531 73.7063 50.9474 74.0749 50.9474C74.4436 50.9474 74.773 50.8531 75.0632 50.6645C75.3553 50.4759 75.5852 50.204 75.7531 49.8486C75.921 49.4914 76.0041 49.0635 76.0023 48.5649Z" fill="#275170"/>
<path d="M79.9069 48.3364V48.7933H77.5744V48.3364H79.9069Z" fill="#275170"/>
<path d="M85.8285 48.5649C85.8285 49.1451 85.7244 49.65 85.5164 50.0798C85.3083 50.5077 85.0218 50.8395 84.6567 51.0752C84.2935 51.3091 83.8756 51.426 83.4029 51.426C82.9302 51.426 82.5113 51.3091 82.1463 51.0752C81.7831 50.8395 81.4975 50.5077 81.2894 50.0798C81.0832 49.65 80.98 49.1451 80.98 48.5649C80.98 47.9847 81.0832 47.4806 81.2894 47.0527C81.4975 46.623 81.784 46.2912 82.149 46.0573C82.514 45.8216 82.932 45.7037 83.4029 45.7037C83.8756 45.7037 84.2935 45.8216 84.6567 46.0573C85.0218 46.2912 85.3083 46.623 85.5164 47.0527C85.7244 47.4806 85.8285 47.9847 85.8285 48.5649ZM85.3302 48.5649C85.3302 48.0662 85.2463 47.6393 85.0783 47.2839C84.9104 46.9267 84.6814 46.6538 84.3912 46.4652C84.101 46.2767 83.7716 46.1824 83.4029 46.1824C83.036 46.1824 82.7075 46.2767 82.4173 46.4652C82.1271 46.6538 81.8972 46.9258 81.7274 47.2812C81.5595 47.6365 81.4756 48.0644 81.4756 48.5649C81.4756 49.0635 81.5595 49.4905 81.7274 49.8459C81.8953 50.2012 82.1244 50.4741 82.4146 50.6645C82.7048 50.8531 83.0342 50.9474 83.4029 50.9474C83.7716 50.9474 84.101 50.8531 84.3912 50.6645C84.6832 50.4759 84.9132 50.204 85.0811 49.8486C85.249 49.4914 85.332 49.0635 85.3302 48.5649Z" fill="#275170"/>
<path d="M87.0666 51.3499V45.7799H88.8762C89.2741 45.7799 89.6062 45.856 89.8727 46.0083C90.141 46.1588 90.3427 46.3637 90.4777 46.623C90.6146 46.8823 90.683 47.1742 90.683 47.4987C90.683 47.8233 90.6155 48.1161 90.4805 48.3772C90.3454 48.6365 90.1446 48.8423 89.8782 48.9946C89.6117 49.1451 89.2804 49.2203 88.8844 49.2203H87.4608V48.7634H88.8707C89.1645 48.7634 89.4082 48.709 89.6017 48.6002C89.7951 48.4896 89.9393 48.3391 90.0342 48.1488C90.1309 47.9584 90.1793 47.7417 90.1793 47.4987C90.1793 47.2558 90.1309 47.0391 90.0342 46.8487C89.9393 46.6583 89.7942 46.5088 89.5989 46.4C89.4055 46.2912 89.16 46.2368 88.8625 46.2368H87.5785V51.3499H87.0666Z" fill="#275170"/>
<path d="M91.5454 46.2368V45.7799H95.6109V46.2368H93.8341V51.3499H93.3222V46.2368H91.5454Z" fill="#275170"/>
<path d="M101.127 48.5649C101.127 49.1451 101.023 49.65 100.814 50.0798C100.606 50.5077 100.32 50.8395 99.9549 51.0752C99.5917 51.3091 99.1737 51.426 98.701 51.426C98.2283 51.426 97.8094 51.3091 97.4444 51.0752C97.0812 50.8395 96.7956 50.5077 96.5875 50.0798C96.3813 49.65 96.2782 49.1451 96.2782 48.5649C96.2782 47.9847 96.3813 47.4806 96.5875 47.0527C96.7956 46.623 97.0821 46.2912 97.4471 46.0573C97.8122 45.8216 98.2301 45.7037 98.701 45.7037C99.1737 45.7037 99.5917 45.8216 99.9549 46.0573C100.32 46.2912 100.606 46.623 100.814 47.0527C101.023 47.4806 101.127 47.9847 101.127 48.5649ZM100.628 48.5649C100.628 48.0662 100.544 47.6393 100.376 47.2839C100.209 46.9267 99.9795 46.6538 99.6893 46.4652C99.3991 46.2767 99.0697 46.1824 98.701 46.1824C98.3342 46.1824 98.0056 46.2767 97.7154 46.4652C97.4252 46.6538 97.1953 46.9258 97.0255 47.2812C96.8576 47.6365 96.7737 48.0644 96.7737 48.5649C96.7737 49.0635 96.8576 49.4905 97.0255 49.8459C97.1935 50.2012 97.4225 50.4741 97.7127 50.6645C98.0029 50.8531 98.3323 50.9474 98.701 50.9474C99.0697 50.9474 99.3991 50.8531 99.6893 50.6645C99.9813 50.4759 100.211 50.204 100.379 49.8486C100.547 49.4914 100.63 49.0635 100.628 48.5649Z" fill="#275170"/>
<path d="M106.364 45.7799V51.3499H105.855V46.2368H102.836V51.3499H102.324V45.7799H106.364Z" fill="#275170"/>
<path d="M107.815 51.3499V45.7799H111.068V46.2368H108.327V48.3337H110.895V48.7906H108.327V50.893H111.123V51.3499H107.815Z" fill="#275170"/>
<path d="M111.864 52.7016V50.893H112.22C112.35 50.7588 112.469 50.582 112.579 50.3626C112.688 50.1414 112.78 49.8567 112.853 49.5086C112.928 49.1587 112.976 48.7217 112.998 48.1977L113.11 45.7799H116.316V50.893H116.973V52.688H116.486V51.3499H112.352V52.7016H111.864ZM112.834 50.893H115.829V46.2368H113.575L113.488 48.1977C113.468 48.6238 113.43 49.0037 113.376 49.3373C113.321 49.6691 113.248 49.9637 113.157 50.2212C113.067 50.4768 112.959 50.7008 112.834 50.893Z" fill="#275170"/>
<path d="M118.077 45.7799H118.581V50.4496H118.624L121.945 45.7799H122.443V51.3499H121.932V46.6855H121.888L118.572 51.3499H118.077V45.7799Z" fill="#275170"/>
<path d="M123.931 45.7799H124.441V47.6266C124.441 47.9149 124.491 48.1469 124.591 48.3228C124.693 48.4969 124.84 48.6229 125.032 48.7009C125.224 48.7788 125.454 48.8178 125.725 48.8178C125.872 48.8178 126.019 48.8115 126.165 48.7988C126.311 48.7861 126.456 48.7679 126.598 48.7444C126.742 48.719 126.884 48.6891 127.025 48.6546C127.166 48.6202 127.303 48.5803 127.438 48.535V49.0027C127.296 49.0481 127.157 49.088 127.022 49.1224C126.887 49.1569 126.751 49.1868 126.614 49.2122C126.479 49.2357 126.339 49.2539 126.193 49.2666C126.047 49.2774 125.892 49.2829 125.727 49.2829C125.348 49.2829 125.024 49.2258 124.755 49.1115C124.487 48.9973 124.283 48.8187 124.142 48.5757C124.002 48.331 123.931 48.0146 123.931 47.6266V45.7799ZM127.373 45.7799H127.874V51.3499H127.373V45.7799Z" fill="#275170"/>
<path d="M129.362 51.3499V45.7799H132.615V46.2368H129.874V48.3337H132.442V48.7906H129.874V50.893H132.669V51.3499H129.362Z" fill="#275170"/>
<path d="M138.331 47.5205H137.816C137.778 47.3301 137.709 47.1542 137.608 46.9929C137.51 46.8297 137.385 46.6873 137.236 46.5659C137.086 46.4444 136.916 46.3501 136.727 46.283C136.537 46.2159 136.331 46.1824 136.111 46.1824C135.757 46.1824 135.434 46.2739 135.142 46.4571C134.851 46.6402 134.619 46.9095 134.443 47.2648C134.27 47.6184 134.183 48.0517 134.183 48.5649C134.183 49.0816 134.27 49.5168 134.443 49.8703C134.619 50.2239 134.851 50.4922 135.142 50.6754C135.434 50.8567 135.757 50.9474 136.111 50.9474C136.331 50.9474 136.537 50.9138 136.727 50.8467C136.916 50.7796 137.086 50.6863 137.236 50.5666C137.385 50.4451 137.51 50.3028 137.608 50.1396C137.709 49.9764 137.778 49.7996 137.816 49.6092H138.331C138.285 49.8649 138.199 50.1033 138.074 50.3245C137.949 50.5439 137.791 50.7361 137.597 50.9011C137.406 51.0661 137.185 51.1948 136.935 51.2873C136.685 51.3798 136.41 51.426 136.111 51.426C135.64 51.426 135.222 51.3091 134.857 51.0752C134.492 50.8395 134.205 50.5077 133.997 50.0798C133.791 49.6519 133.688 49.1469 133.688 48.5649C133.688 47.9828 133.791 47.4779 133.997 47.05C134.205 46.6221 134.492 46.2912 134.857 46.0573C135.222 45.8216 135.64 45.7037 136.111 45.7037C136.41 45.7037 136.685 45.7499 136.935 45.8424C137.185 45.9331 137.406 46.0618 137.597 46.2286C137.791 46.3936 137.949 46.5858 138.074 46.8052C138.199 47.0246 138.285 47.263 138.331 47.5205Z" fill="#275170"/>
<path d="M142.783 51.3499L140.853 48.7226H140.045V51.3499H139.533V45.7799H140.045V48.2684H140.552L142.619 45.7799H143.227L141.149 48.2902L143.396 51.3499H142.783Z" fill="#275170"/>
<path d="M144.359 45.7799H144.863V50.4496H144.907L148.228 45.7799H148.726V51.3499H148.214V46.6855H148.17L144.855 51.3499H144.359V45.7799Z" fill="#275170"/>
<path d="M150.216 45.7799H150.72V50.4496H150.764L154.085 45.7799H154.583V51.3499H154.071V46.6855H154.027L150.712 51.3499H150.216V45.7799ZM152.902 44.3874H153.362C153.362 44.6466 153.275 44.857 153.102 45.0183C152.93 45.1797 152.696 45.2604 152.398 45.2604C152.105 45.2604 151.872 45.1797 151.7 45.0183C151.529 44.857 151.443 44.6466 151.443 44.3874H151.903C151.903 44.5288 151.941 44.6485 152.018 44.7464C152.096 44.8425 152.223 44.8905 152.398 44.8905C152.574 44.8905 152.701 44.8425 152.782 44.7464C152.862 44.6485 152.902 44.5288 152.902 44.3874Z" fill="#275170"/>
<path d="M162.762 50.863L162.688 52.6662H162.184V51.3499H161.76V50.863H162.762ZM158.242 51.3499V45.7799H158.732V50.8794H161.787V45.7799H162.275V51.3499H158.242Z" fill="#275170"/>
<path d="M163.866 51.3499V45.7799H167.118V46.2368H164.378V48.3337H166.946V48.7906H164.378V50.893H167.173V51.3499H163.866Z" fill="#275170"/>
<path d="M168.443 51.3499V45.7799H168.955V48.3337H172.136V45.7799H172.648V51.3499H172.136V48.7906H168.955V51.3499H168.443Z" fill="#275170"/>
<path d="M173.795 46.2368V45.7799H177.861V46.2368H176.084V51.3499H175.572V46.2368H173.795Z" fill="#275170"/>
<path d="M179.013 51.3499V45.7799H180.823C181.221 45.7799 181.553 45.856 181.82 46.0083C182.088 46.1588 182.29 46.3637 182.425 46.623C182.561 46.8823 182.63 47.1742 182.63 47.4987C182.63 47.8233 182.562 48.1161 182.427 48.3772C182.292 48.6365 182.091 48.8423 181.825 48.9946C181.559 49.1451 181.227 49.2203 180.831 49.2203H179.408V48.7634H180.818C181.111 48.7634 181.355 48.709 181.548 48.6002C181.742 48.4896 181.886 48.3391 181.981 48.1488C182.078 47.9584 182.126 47.7417 182.126 47.4987C182.126 47.2558 182.078 47.0391 181.981 46.8487C181.886 46.6583 181.741 46.5088 181.546 46.4C181.352 46.2912 181.107 46.2368 180.809 46.2368H179.525V51.3499H179.013Z" fill="#275170"/>
<defs>
<linearGradient id="paint0_linear_47_41" x1="5.25431" y1="4.11427" x2="19.7434" y2="59.4433" gradientUnits="userSpaceOnUse">
<stop stop-color="#64B8D2"/>
<stop offset="1" stop-color="#DFF8F9"/>
</linearGradient>
<linearGradient id="paint1_linear_47_41" x1="5.25431" y1="4.11427" x2="19.7434" y2="59.4433" gradientUnits="userSpaceOnUse">
<stop stop-color="#64B8D2"/>
<stop offset="1" stop-color="#DFF8F9"/>
</linearGradient>
<linearGradient id="paint2_linear_47_41" x1="5.25431" y1="4.11427" x2="19.7434" y2="59.4433" gradientUnits="userSpaceOnUse">
<stop stop-color="#64B8D2"/>
<stop offset="1" stop-color="#DFF8F9"/>
</linearGradient>
<linearGradient id="paint3_linear_47_41" x1="5.25431" y1="4.11427" x2="19.7434" y2="59.4433" gradientUnits="userSpaceOnUse">
<stop stop-color="#64B8D2"/>
<stop offset="1" stop-color="#DFF8F9"/>
</linearGradient>
<linearGradient id="paint4_linear_47_41" x1="5.25431" y1="4.11427" x2="19.7434" y2="59.4433" gradientUnits="userSpaceOnUse">
<stop stop-color="#64B8D2"/>
<stop offset="1" stop-color="#DFF8F9"/>
</linearGradient>
<linearGradient id="paint5_linear_47_41" x1="5.25431" y1="4.11427" x2="19.7434" y2="59.4433" gradientUnits="userSpaceOnUse">
<stop stop-color="#64B8D2"/>
<stop offset="1" stop-color="#DFF8F9"/>
</linearGradient>
<linearGradient id="paint6_linear_47_41" x1="30.9972" y1="20.055" x2="14.326" y2="66.9809" gradientUnits="userSpaceOnUse">
<stop stop-color="#275170"/>
<stop offset="1" stop-color="#268EA5" stop-opacity="0"/>
</linearGradient>
<linearGradient id="paint7_linear_47_41" x1="30.9972" y1="20.055" x2="14.326" y2="66.9809" gradientUnits="userSpaceOnUse">
<stop stop-color="#275170"/>
<stop offset="1" stop-color="#268EA5" stop-opacity="0"/>
</linearGradient>
<linearGradient id="paint8_linear_47_41" x1="30.9972" y1="20.055" x2="14.326" y2="66.9809" gradientUnits="userSpaceOnUse">
<stop stop-color="#275170"/>
<stop offset="1" stop-color="#268EA5" stop-opacity="0"/>
</linearGradient>
<linearGradient id="paint9_linear_47_41" x1="30.9972" y1="20.055" x2="14.326" y2="66.9809" gradientUnits="userSpaceOnUse">
<stop stop-color="#275170"/>
<stop offset="1" stop-color="#268EA5" stop-opacity="0"/>
</linearGradient>
<linearGradient id="paint10_linear_47_41" x1="30.9972" y1="20.055" x2="14.326" y2="66.9809" gradientUnits="userSpaceOnUse">
<stop stop-color="#275170"/>
<stop offset="1" stop-color="#268EA5" stop-opacity="0"/>
</linearGradient>
<linearGradient id="paint11_linear_47_41" x1="30.9972" y1="20.055" x2="14.326" y2="66.9809" gradientUnits="userSpaceOnUse">
<stop stop-color="#275170"/>
<stop offset="1" stop-color="#268EA5" stop-opacity="0"/>
</linearGradient>
<linearGradient id="paint12_linear_47_41" x1="16.8145" y1="44.7068" x2="18.9509" y2="81.1544" gradientUnits="userSpaceOnUse">
<stop stop-color="white"/>
<stop offset="1" stop-color="#FEFEFE" stop-opacity="0"/>
</linearGradient>
<linearGradient id="paint13_linear_47_41" x1="16.8145" y1="44.7068" x2="18.9509" y2="81.1544" gradientUnits="userSpaceOnUse">
<stop stop-color="white"/>
<stop offset="1" stop-color="#FEFEFE" stop-opacity="0"/>
</linearGradient>
<linearGradient id="paint14_linear_47_41" x1="16.8145" y1="44.7068" x2="18.9509" y2="81.1544" gradientUnits="userSpaceOnUse">
<stop stop-color="white"/>
<stop offset="1" stop-color="#FEFEFE" stop-opacity="0"/>
</linearGradient>
<linearGradient id="paint15_linear_47_41" x1="16.8145" y1="44.7068" x2="18.9509" y2="81.1544" gradientUnits="userSpaceOnUse">
<stop stop-color="white"/>
<stop offset="1" stop-color="#FEFEFE" stop-opacity="0"/>
</linearGradient>
<linearGradient id="paint16_linear_47_41" x1="16.8145" y1="44.7068" x2="18.9509" y2="81.1544" gradientUnits="userSpaceOnUse">
<stop stop-color="white"/>
<stop offset="1" stop-color="#FEFEFE" stop-opacity="0"/>
</linearGradient>
<linearGradient id="paint17_linear_47_41" x1="16.8145" y1="44.7068" x2="18.9509" y2="81.1544" gradientUnits="userSpaceOnUse">
<stop stop-color="white"/>
<stop offset="1" stop-color="#FEFEFE" stop-opacity="0"/>
</linearGradient>
</defs>
</svg>
