<svg width="38" height="20" viewBox="0 0 38 20" fill="none" xmlns="http://www.w3.org/2000/svg">
<path d="M3.36831 12.8085C3.50814 12.9237 3.68499 13.08 3.89885 13.2774C4.12094 13.4667 4.37181 13.6559 4.65148 13.8451C5.06275 14.1248 5.47402 14.3428 5.88529 14.4991C6.30479 14.6554 6.74073 14.7335 7.19313 14.7335C7.61263 14.7335 7.96221 14.6883 8.24187 14.5978C8.52976 14.4991 8.75596 14.3716 8.92047 14.2153C9.08498 14.059 9.20014 13.878 9.26594 13.6723C9.33997 13.4667 9.37698 13.2487 9.37698 13.0183C9.37698 12.7633 9.27828 12.5371 9.08087 12.3396C8.89168 12.134 8.65726 11.953 8.37759 11.7967C8.09793 11.6404 7.80593 11.5088 7.50159 11.4018C7.19724 11.2867 6.93403 11.1921 6.71194 11.118C5.72489 10.7725 4.86122 10.4023 4.12094 10.0074C3.38065 9.60435 2.76374 9.16012 2.27022 8.67476C1.77669 8.18118 1.40655 7.63823 1.15978 7.04593C0.913022 6.45363 0.789641 5.79963 0.789641 5.08393C0.789641 4.31887 0.941811 3.62374 1.24615 2.99853C1.55872 2.37332 1.99878 1.83861 2.56633 1.39438C3.14211 0.950153 3.83305 0.608755 4.63914 0.370189C5.44523 0.123396 6.34591 0 7.34119 0C8.08148 0 8.79709 0.0863775 9.48802 0.259133C10.1872 0.423661 10.8658 0.691019 11.5238 1.06121C11.8035 1.22574 12.0667 1.39438 12.3135 1.56713C12.5684 1.73989 12.7905 1.91264 12.9797 2.0854C13.1689 2.24993 13.317 2.40623 13.4239 2.5543C13.539 2.70238 13.5966 2.82989 13.5966 2.93683C13.5966 3.04378 13.5678 3.14249 13.5103 3.23298C13.4609 3.32347 13.3828 3.42631 13.2758 3.54148L11.3881 5.55284C11.2483 5.69269 11.1084 5.76261 10.9686 5.76261C10.8534 5.76261 10.7465 5.7297 10.6478 5.66389C10.5573 5.59808 10.4545 5.51582 10.3394 5.4171L10.2283 5.31838C10.0638 5.17853 9.87873 5.03457 9.6731 4.8865C9.47569 4.73842 9.26183 4.6068 9.03151 4.49163C8.8012 4.36823 8.55855 4.26951 8.30356 4.19548C8.04858 4.11321 7.78947 4.07208 7.52626 4.07208C7.25482 4.07208 6.99983 4.09676 6.7613 4.14612C6.52276 4.18725 6.31301 4.25718 6.13205 4.35589C5.95109 4.45461 5.80715 4.58623 5.70022 4.75076C5.59329 4.90706 5.53982 5.10038 5.53982 5.33072C5.53982 5.56106 5.5974 5.76261 5.71256 5.93537C5.82771 6.09989 6.00045 6.2562 6.23076 6.40427C6.46107 6.54412 6.74485 6.67986 7.08209 6.81148C7.42756 6.93488 7.82649 7.07061 8.27889 7.21869C9.15078 7.50661 9.95276 7.81099 10.6848 8.13182C11.4251 8.44442 12.0626 8.81873 12.5972 9.25473C13.1319 9.6825 13.5473 10.1967 13.8434 10.7972C14.1477 11.3977 14.2999 12.1257 14.2999 12.9813C14.2999 13.8862 14.1148 14.7088 13.7447 15.4492C13.3745 16.1814 12.8646 16.8066 12.2148 17.3248C11.5732 17.8431 10.8164 18.2462 9.94454 18.5341C9.07264 18.8138 8.13494 18.9537 7.13144 18.9537C6.49808 18.9537 5.86473 18.8755 5.23137 18.7192C4.60624 18.5547 4.00167 18.3326 3.41766 18.0529C2.84188 17.765 2.29489 17.4318 1.77669 17.0534C1.26672 16.675 0.814317 16.2678 0.419497 15.8318L0.382482 15.7947C0.366031 15.7783 0.34958 15.7618 0.33313 15.7454C0.316679 15.7289 0.300228 15.7125 0.283777 15.696C0.0945923 15.4986 0 15.3341 0 15.2024C0 15.0626 0.0945923 14.9063 0.283777 14.7335L2.41827 12.6975C2.59101 12.5741 2.73084 12.5124 2.83777 12.5124C2.9118 12.5124 2.98994 12.5371 3.0722 12.5864C3.15445 12.6358 3.25315 12.7098 3.36831 12.8085Z" fill="white"/>
<path d="M20.2683 18.4601C20.1778 18.312 20.0956 18.1598 20.0215 18.0035C19.9557 17.8472 19.8899 17.6868 19.8241 17.5223L13.4946 0.950152C13.4946 0.90902 13.4864 0.872001 13.47 0.839095C13.4617 0.806189 13.4576 0.773284 13.4576 0.740379C13.4576 0.510039 13.6098 0.394869 13.9141 0.394869H17.887C18.1996 0.394869 18.4135 0.551171 18.5286 0.863775L22.2917 12.0928C22.629 11.155 22.9498 10.2213 23.2541 9.29175C23.5667 8.35393 23.8751 7.41612 24.1795 6.47831C24.4838 5.5405 24.7882 4.6068 25.0925 3.67721C25.3968 2.7394 25.7176 1.80159 26.0549 0.863775C26.17 0.551171 26.3962 0.394869 26.7335 0.394869H30.62C30.8092 0.394869 30.9408 0.431888 31.0148 0.505925C31.0971 0.571737 31.1382 0.662227 31.1382 0.777397C31.1382 0.834982 31.1341 0.880228 31.1258 0.913133L24.7594 17.5223C24.7182 17.6375 24.6689 17.765 24.6113 17.9048C24.5537 18.0447 24.4879 18.1763 24.4139 18.2997C24.3399 18.4149 24.2535 18.5136 24.1548 18.5958C24.0561 18.6781 23.9451 18.7192 23.8217 18.7192H20.7742C20.5274 18.7192 20.3588 18.6328 20.2683 18.4601Z" fill="white"/>
<path d="M33.0805 19.0576C30.4348 19.0576 28.29 16.8895 28.29 14.2151C28.29 11.5406 30.4348 9.3725 33.0805 9.3725C35.7262 9.3725 37.871 11.5406 37.871 14.2151L37.871 18.5019C37.871 18.8088 37.6242 19.0576 37.3198 19.0576L33.0805 19.0576Z" fill="white"/>
</svg>
